<svg width="20" height="21" viewBox="0 0 20 21" fill="none" xmlns="http://www.w3.org/2000/svg">
<path d="M16.9308 3.82715C15.6561 3.24225 14.2892 2.81132 12.8599 2.56451C12.8339 2.55975 12.8079 2.57165 12.7945 2.59546C12.6187 2.90814 12.4239 3.31606 12.2876 3.63668C10.7503 3.40653 9.22099 3.40653 7.71527 3.63668C7.57887 3.30893 7.37707 2.90814 7.20048 2.59546C7.18707 2.57245 7.16107 2.56054 7.13504 2.56451C5.70659 2.81053 4.33963 3.24146 3.06411 3.82715C3.05307 3.83191 3.04361 3.83986 3.03732 3.85017C0.444493 7.7238 -0.265792 11.5022 0.0826501 15.2338C0.0842267 15.2521 0.0944749 15.2695 0.108665 15.2806C1.81934 16.5369 3.47642 17.2996 5.10273 17.8051C5.12876 17.813 5.15634 17.8035 5.1729 17.7821C5.55761 17.2567 5.90054 16.7028 6.19456 16.1203C6.21192 16.0861 6.19535 16.0457 6.15989 16.0322C5.61594 15.8258 5.098 15.5743 4.59977 15.2886C4.56037 15.2656 4.55721 15.2092 4.59347 15.1822C4.69831 15.1036 4.80318 15.0219 4.9033 14.9394C4.92141 14.9243 4.94665 14.9211 4.96794 14.9306C8.24107 16.425 11.7846 16.425 15.0191 14.9306C15.0404 14.9203 15.0657 14.9235 15.0846 14.9386C15.1847 15.0211 15.2895 15.1036 15.3952 15.1822C15.4314 15.2092 15.4291 15.2656 15.3897 15.2886C14.8914 15.5798 14.3735 15.8258 13.8288 16.0314C13.7933 16.0449 13.7775 16.0861 13.7949 16.1203C14.0952 16.702 14.4381 17.2559 14.8157 17.7813C14.8315 17.8035 14.8599 17.813 14.8859 17.8051C16.5201 17.2996 18.1772 16.5369 19.8879 15.2806C19.9028 15.2695 19.9123 15.2528 19.9139 15.2346C20.3309 10.9205 19.2154 7.17304 16.9568 3.85096C16.9513 3.83986 16.9419 3.83191 16.9308 3.82715ZM6.68335 12.9617C5.69792 12.9617 4.88594 12.057 4.88594 10.9459C4.88594 9.83482 5.68217 8.93011 6.68335 8.93011C7.69239 8.93011 8.49651 9.84276 8.48073 10.9459C8.48073 12.057 7.68451 12.9617 6.68335 12.9617ZM13.329 12.9617C12.3435 12.9617 11.5316 12.057 11.5316 10.9459C11.5316 9.83482 12.3278 8.93011 13.329 8.93011C14.338 8.93011 15.1421 9.84276 15.1264 10.9459C15.1264 12.057 14.338 12.9617 13.329 12.9617Z" fill="white"/>
</svg>
