<svg width="20" height="21" viewBox="0 0 20 21" fill="none" xmlns="http://www.w3.org/2000/svg">
<g clip-path="url(#clip0_2253_2086)">
<path fill-rule="evenodd" clip-rule="evenodd" d="M10.0001 0.780762C7.62614 0.781993 5.33001 1.62281 3.52229 3.15286C1.71457 4.68292 0.513151 6.80244 0.132852 9.13243C-0.247447 11.4624 0.218171 13.8509 1.44646 15.8709C2.67474 17.8909 4.5856 19.4106 6.83734 20.1582C7.33411 20.2504 7.52123 19.9426 7.52123 19.6808C7.52123 19.419 7.51129 18.6599 7.50798 17.8301C4.72606 18.4311 4.13822 16.6562 4.13822 16.6562C3.6845 15.5036 3.02876 15.2007 3.02876 15.2007C2.12133 14.5849 3.09666 14.5964 3.09666 14.5964C4.10179 14.6672 4.63003 15.6222 4.63003 15.6222C5.5209 17.1419 6.96981 16.7023 7.53944 16.4454C7.62886 15.8016 7.88884 15.3637 8.17531 15.1151C5.95309 14.8648 3.61826 14.0119 3.61826 10.2019C3.60449 9.21385 3.97325 8.25831 4.64824 7.533C4.54557 7.28273 4.2028 6.27179 4.74593 4.89862C4.74593 4.89862 5.58548 4.63189 7.4964 5.9178C9.13546 5.47212 10.8648 5.47212 12.5038 5.9178C14.4131 4.63189 15.251 4.89862 15.251 4.89862C15.7958 6.2685 15.453 7.27944 15.3503 7.533C16.0275 8.25842 16.397 9.21564 16.382 10.2052C16.382 14.0234 14.0422 14.8648 11.8166 15.1101C12.1743 15.4197 12.4939 16.0239 12.4939 16.9525C12.4939 18.2829 12.4823 19.3531 12.4823 19.6808C12.4823 19.9458 12.6628 20.2554 13.1695 20.1582C15.4215 19.4105 17.3326 17.8905 18.5608 15.8702C19.7891 13.8499 20.2545 11.461 19.8737 9.13081C19.493 6.8006 18.291 4.68106 16.4827 3.15127C14.6744 1.62148 12.3777 0.781213 10.0034 0.780762H10.0001Z" fill="white"/>
<path d="M6.68986 17.0102C6.68986 17.0908 6.59713 17.16 6.47791 17.1616C6.35868 17.1633 6.26099 17.0974 6.26099 17.0167C6.26099 16.9361 6.35371 16.8669 6.47294 16.8653C6.59216 16.8636 6.68986 16.9278 6.68986 17.0102Z" fill="white"/>
<path d="M7.45166 16.8837C7.46656 16.9644 7.38377 17.0483 7.26454 17.0681C7.14532 17.0878 7.041 17.0401 7.02609 16.9611C7.01119 16.882 7.0973 16.7964 7.21321 16.775C7.32912 16.7536 7.43676 16.803 7.45166 16.8837Z" fill="white"/>
<path d="M5.87173 16.9546C5.84689 17.032 5.73429 17.0665 5.62169 17.0336C5.50909 17.0007 5.43457 16.9085 5.4561 16.8294C5.47762 16.7504 5.59188 16.7142 5.70614 16.7504C5.8204 16.7866 5.89326 16.8739 5.87173 16.9546Z" fill="white"/>
<path d="M5.12168 16.6316C5.06704 16.6925 4.95609 16.6761 4.86502 16.5938C4.77394 16.5114 4.75241 16.3995 4.80706 16.3402C4.8617 16.2809 4.97265 16.2974 5.06703 16.3781C5.16142 16.4587 5.17964 16.5724 5.12168 16.6316Z" fill="white"/>
<path d="M4.58697 16.0786C4.5257 16.1214 4.42138 16.0786 4.36342 15.993C4.34739 15.9776 4.33465 15.9592 4.32594 15.9388C4.31724 15.9184 4.31274 15.8965 4.31274 15.8744C4.31274 15.8523 4.31724 15.8304 4.32594 15.81C4.33465 15.7896 4.34739 15.7712 4.36342 15.7559C4.42469 15.7147 4.52902 15.7559 4.58697 15.8398C4.64493 15.9238 4.64659 16.0358 4.58697 16.0786Z" fill="white"/>
<path d="M4.19285 15.507C4.15856 15.5242 4.11933 15.529 4.08187 15.5206C4.04441 15.5122 4.01106 15.4911 3.98752 15.4609C3.92294 15.3918 3.90969 15.2963 3.95937 15.2535C4.00904 15.2107 4.09847 15.2304 4.16305 15.2996C4.22763 15.3687 4.24253 15.4642 4.19285 15.507Z" fill="white"/>
<path d="M3.78705 15.0578C3.76552 15.1072 3.68604 15.122 3.62146 15.0874C3.55688 15.0528 3.50886 14.9886 3.53205 14.9376C3.55523 14.8865 3.63306 14.8734 3.69764 14.9079C3.76222 14.9425 3.81189 15.0084 3.78705 15.0578Z" fill="white"/>
</g>
<defs>
<clipPath id="clip0_2253_2086">
<rect width="20" height="20" fill="white" transform="translate(0 0.364258)"/>
</clipPath>
</defs>
</svg>
