<svg width="16" height="19" viewBox="0 0 16 19" fill="none" xmlns="http://www.w3.org/2000/svg">
<path d="M1 15.6141V3.1141C1 2.56156 1.21949 2.03166 1.61019 1.64096C2.00089 1.25026 2.5308 1.03076 3.08333 1.03076H13.5C13.721 1.03076 13.933 1.11856 14.0893 1.27484C14.2455 1.43112 14.3333 1.64308 14.3333 1.8641V16.8641C14.3333 17.0851 14.2455 17.2971 14.0893 17.4534C13.933 17.6096 13.721 17.6974 13.5 17.6974H3.08333C2.5308 17.6974 2.00089 17.4779 1.61019 17.0872C1.21949 16.6965 1 16.1666 1 15.6141ZM1 15.6141C1 15.0616 1.21949 14.5317 1.61019 14.141C2.00089 13.7503 2.5308 13.5308 3.08333 13.5308H14.3333M4.33333 8.53076H11M4.33333 5.19743H9.33333" stroke="white" stroke-width="2" stroke-linecap="round" stroke-linejoin="round"/>
</svg>
