<svg width="80" height="80" viewBox="0 0 80 80" fill="none" xmlns="http://www.w3.org/2000/svg">
<g clip-path="url(#clip0_2452_1138)">
<path d="M57.6507 75.1724C52.3424 77.8415 46.3467 79.3443 40 79.3443C18.2708 79.3443 0.655762 61.7293 0.655762 40C0.655762 18.2708 18.2708 0.655762 40 0.655762C61.7293 0.655762 79.3443 18.2708 79.3443 40C79.3443 44.2401 78.6735 48.3236 77.4324 52.15" stroke="black" stroke-width="2" stroke-miterlimit="10"/>
<path d="M51.7844 67.6907H18.9456V12.3093H49.0934L64.8111 28.027V47.1237" stroke="black" stroke-width="2" stroke-miterlimit="10"/>
<path d="M64.811 78.9903C72.3351 76.9741 78.8263 69.0812 78.8263 63.5488V52.7054L64.811 47.1238L50.7957 52.7054V63.5488C50.7957 69.0812 57.287 76.9741 64.811 78.9903Z" stroke="black" stroke-width="2" stroke-miterlimit="10"/>
<path d="M64.8111 28.027H49.0935V12.3093" stroke="black" stroke-width="2" stroke-miterlimit="10"/>
<path d="M26.0283 37.9971H57.7283" stroke="black" stroke-width="2" stroke-miterlimit="10"/>
<path d="M26.0283 28.0703H44.5325" stroke="black" stroke-width="2" stroke-miterlimit="10"/>
<path d="M26.0283 47.9207H57.7283" stroke="black" stroke-width="2" stroke-miterlimit="10"/>
<path d="M26.0283 57.844H50.7957" stroke="black" stroke-width="2" stroke-miterlimit="10"/>
</g>
<defs>
<clipPath id="clip0_2452_1138">
<rect width="80" height="80" fill="white"/>
</clipPath>
</defs>
</svg>
