<svg width="96" height="88" viewBox="0 0 96 88" fill="none" xmlns="http://www.w3.org/2000/svg">
<g clip-path="url(#clip0_2801_27062)">
<path d="M20.4307 75.9136C25.0317 75.9136 28.7616 72.188 28.7616 67.5921C28.7616 62.9963 25.0317 59.2706 20.4307 59.2706C15.8297 59.2706 12.0999 62.9963 12.0999 67.5921C12.0999 72.188 15.8297 75.9136 20.4307 75.9136Z" stroke="black" stroke-width="2" stroke-miterlimit="10"/>
<path d="M20.4308 87.2267C31.2868 87.2267 40.0874 78.436 40.0874 67.5921C40.0874 56.7483 31.2868 47.9576 20.4308 47.9576C9.57474 47.9576 0.77417 56.7483 0.77417 67.5921C0.77417 78.436 9.57474 87.2267 20.4308 87.2267Z" stroke="black" stroke-width="2" stroke-miterlimit="10"/>
<path d="M48 51.693V40.0424" stroke="black" stroke-width="2" stroke-miterlimit="10"/>
<path d="M48 51.693L37.4556 57.774" stroke="black" stroke-width="2" stroke-miterlimit="10"/>
<path d="M48 51.693L58.5454 57.7746" stroke="black" stroke-width="2" stroke-miterlimit="10"/>
<path d="M47.9999 40.0423C58.8559 40.0423 67.6565 31.2517 67.6565 20.4078C67.6565 9.56398 58.8559 0.773315 47.9999 0.773315C37.1438 0.773315 28.3433 9.56398 28.3433 20.4078C28.3433 31.2517 37.1438 40.0423 47.9999 40.0423Z" stroke="black" stroke-width="2" stroke-miterlimit="10"/>
<path d="M55.2028 13.2131H40.7971V27.6026H55.2028V13.2131Z" stroke="black" stroke-width="2" stroke-miterlimit="10"/>
<path d="M75.5692 87.2267C86.4253 87.2267 95.2258 78.436 95.2258 67.5921C95.2258 56.7483 86.4253 47.9576 75.5692 47.9576C64.7132 47.9576 55.9126 56.7483 55.9126 67.5921C55.9126 78.436 64.7132 87.2267 75.5692 87.2267Z" stroke="black" stroke-width="2" stroke-miterlimit="10"/>
<path d="M75.5693 59.5383L68.304 72.1081H82.8346L75.5693 59.5383Z" stroke="black" stroke-width="2" stroke-miterlimit="10"/>
</g>
<defs>
<clipPath id="clip0_2801_27062">
<rect width="96" height="88" fill="white"/>
</clipPath>
</defs>
</svg>
