<svg width="96" height="96" viewBox="0 0 96 96" fill="none" xmlns="http://www.w3.org/2000/svg">
<g clip-path="url(#clip0_2801_27055)">
<path d="M95.2267 40.9476H0.773438V95.2267H95.2267V40.9476Z" stroke="black" stroke-width="2" stroke-miterlimit="10"/>
<path d="M47.9999 0.773346C62.3433 0.773346 73.9883 12.4183 73.9883 26.7618V38.4208C73.9883 39.8154 72.8562 40.9476 71.4616 40.9476H24.5382C23.1437 40.9476 22.0115 39.8154 22.0115 38.4208V26.7618C22.0115 12.4183 33.6565 0.773346 47.9999 0.773346Z" stroke="black" stroke-width="2" stroke-miterlimit="10"/>
<path d="M48 47.5209C32.0503 47.5209 18.2946 55.9352 11.9219 68.0871C18.2946 80.239 32.0502 88.6533 48 88.6533C63.9497 88.6533 77.7053 80.239 84.078 68.0871C77.7053 55.9352 63.9497 47.5209 48 47.5209Z" stroke="black" stroke-width="2" stroke-miterlimit="10"/>
<path d="M47.9999 84.739C57.1965 84.739 64.6518 77.2837 64.6518 68.0872C64.6518 58.8906 57.1965 51.4354 47.9999 51.4354C38.8034 51.4354 31.3481 58.8906 31.3481 68.0872C31.3481 77.2837 38.8034 84.739 47.9999 84.739Z" stroke="black" stroke-width="2" stroke-miterlimit="10"/>
<path d="M86.8478 45.7626L9.1521 90.4116" stroke="black" stroke-width="2" stroke-miterlimit="10"/>
</g>
<defs>
<clipPath id="clip0_2801_27055">
<rect width="96" height="96" fill="white"/>
</clipPath>
</defs>
</svg>
