<svg width="96" height="108" viewBox="0 0 96 108" fill="none" xmlns="http://www.w3.org/2000/svg">
<g clip-path="url(#clip0_2451_1091)">
<path d="M48 107.129C74.0288 107.129 95.1294 86.0078 95.1294 59.9541C95.1294 33.9004 74.0288 12.7797 48 12.7797C21.9711 12.7797 0.870605 33.9004 0.870605 59.9541C0.870605 86.0078 21.9711 107.129 48 107.129Z" stroke="black" stroke-width="2" stroke-miterlimit="10"/>
<path d="M48 80.0683C59.0981 80.0683 68.0949 71.0628 68.0949 59.9541C68.0949 48.8454 59.0981 39.84 48 39.84C36.9018 39.84 27.905 48.8454 27.905 59.9541C27.905 71.0628 36.9018 80.0683 48 80.0683Z" stroke="black" stroke-width="2" stroke-miterlimit="10"/>
<path d="M48.3354 12.7798V0.692383" stroke="black" stroke-width="2" stroke-miterlimit="10"/>
<path d="M35.0298 0.87146H61.6414" stroke="black" stroke-width="2" stroke-miterlimit="10"/>
<path d="M62.3075 45.832L48.1003 60.0547" stroke="black" stroke-width="2" stroke-miterlimit="10"/>
<path d="M76.3616 31.7624L62.3076 45.8319" stroke="black" stroke-width="2" stroke-miterlimit="10"/>
<path d="M86.4349 21.6782L81.4221 26.6962" stroke="black" stroke-width="2" stroke-miterlimit="10"/>
<path d="M83.2231 18.3502L89.7756 24.9088" stroke="black" stroke-width="2" stroke-miterlimit="10"/>
</g>
<defs>
<clipPath id="clip0_2451_1091">
<rect width="96" height="108" fill="white"/>
</clipPath>
</defs>
</svg>
