<svg width="151" height="116" viewBox="0 0 151 116" fill="none" xmlns="http://www.w3.org/2000/svg">
<path d="M126.913 14.12C111.29 3.67157 93.768 0.374996 76.2682 0.12915C57.204 0.285598 39.8495 3.6157 24.2718 13.5725C-7.53178 33.8883 -8.20227 79.8727 22.9755 101.015C51.0355 120.069 98.9531 120.147 127.08 101.205C158.247 80.2191 158.135 35.0393 126.913 14.12ZM119.638 96.8472C119.638 99.7639 117.257 102.133 114.341 102.133H36.1394C33.2228 102.133 30.8537 99.7639 30.8537 96.8472V18.6458C30.8537 15.718 33.2228 13.349 36.1394 13.349H114.33C117.246 13.349 119.627 15.718 119.627 18.6458V96.8361L119.638 96.8472Z" fill="#FF4A40"/>
</svg>
