<svg width="15" height="14" viewBox="0 0 15 14" fill="none" xmlns="http://www.w3.org/2000/svg">
<path d="M10.0384 7.7665C10.1725 7.71063 10.2843 7.64358 10.4072 7.54301C10.4742 7.50948 10.5301 7.45361 10.5972 7.38656C10.8765 7.09601 11.1894 6.63784 11.1894 5.85561C11.1894 4.55933 10.1949 3.56477 8.26164 3.56477H5.0768V9.80032H7.36766V8.14645H7.87051L9.02152 9.80032H11.4353L10.0384 7.7665ZM7.36766 5.47566H8.12754C8.56336 5.47566 8.76452 5.69916 8.76452 5.97853C8.76452 6.2579 8.56336 6.49257 8.12754 6.49257H7.36766V5.47566ZM10.0384 7.7665C10.1725 7.71063 10.2843 7.64358 10.4072 7.54301C10.4742 7.50948 10.5301 7.45361 10.5972 7.38656C10.8765 7.09601 11.1894 6.63784 11.1894 5.85561C11.1894 4.55933 10.1949 3.56477 8.26164 3.56477H5.0768V9.80032H7.36766V8.14645H7.87051L9.02152 9.80032H11.4353L10.0384 7.7665ZM7.36766 5.47566H8.12754C8.56336 5.47566 8.76452 5.69916 8.76452 5.97853C8.76452 6.2579 8.56336 6.49257 8.12754 6.49257H7.36766V5.47566ZM7.87051 0C3.82522 0 0.740967 3.05073 0.740967 6.87252C0.740967 7.09601 0.75214 7.31951 0.77449 7.54301C1.10973 11.0519 4.07107 13.745 7.87051 13.745C11.67 13.745 14.6313 11.0519 14.9665 7.54301C14.9889 7.31951 15.0001 7.09601 15.0001 6.87252C15.0001 3.05073 11.927 0 7.87051 0ZM7.87051 11.5883C5.3003 11.5883 3.35587 10.0909 3.0765 7.54301C3.04298 7.33068 3.03183 7.10719 3.03183 6.87252C3.03183 3.92236 5.0768 2.15674 7.87051 2.15674C10.6754 2.15674 12.7092 3.92236 12.7092 6.87252C12.7092 7.10719 12.698 7.33068 12.6645 7.54301C12.3851 10.0909 10.4519 11.5883 7.87051 11.5883ZM10.4072 7.54301C10.4742 7.50948 10.5301 7.45361 10.5972 7.38656C10.8765 7.09601 11.1894 6.63784 11.1894 5.85561C11.1894 4.55933 10.1949 3.56477 8.26164 3.56477H5.0768V9.80032H7.36766V8.14645H7.87051L9.02152 9.80032H11.4353L10.0384 7.7665C10.1725 7.71063 10.2843 7.64358 10.4072 7.54301ZM7.36766 5.47566H8.12754C8.56336 5.47566 8.76452 5.69916 8.76452 5.97853C8.76452 6.2579 8.56336 6.49257 8.12754 6.49257H7.36766V5.47566Z" fill="#FF4A40"/>
</svg>
