<svg width="128" height="112" viewBox="0 0 128 112" fill="none" xmlns="http://www.w3.org/2000/svg">
<path d="M127.277 111.52H98.7474C96.5013 101.675 83.5385 47.3208 83.5385 47.3208C83.0021 44.9741 80.9124 43.309 78.4986 43.309H48.4272C46.0134 43.309 43.9126 44.9852 43.3873 47.3543C43.3873 47.3543 29.4411 109.542 28.9942 111.52H0.610107C4.53247 96.9594 8.62244 82.6667 13.7964 68.7764C19.0374 54.7297 29.9663 44.7394 43.0856 39.5096C39.4426 38.4033 35.8778 36.9282 32.4472 35.0844C24.6248 30.8826 19.2274 24.4236 15.1374 16.7241C12.3437 11.4719 10.064 6.06333 8.13074 0.542969H35.7884L42.8733 30.4133C43.4097 32.76 45.4994 34.425 47.9131 34.425H77.9846C80.4095 34.425 82.4992 32.7488 83.0356 30.3798L89.707 0.542969H115.264C114.336 3.2808 113.375 5.98511 112.369 8.68942C107.129 22.7473 96.1995 32.7265 83.0691 37.9563C86.7121 39.0626 90.2769 40.5377 93.7076 42.3815C101.541 46.5944 106.939 53.0423 111.029 60.7417C119.51 76.6882 123.231 94.1656 127.277 111.52Z" fill="#FF4A40"/>
</svg>
