<svg width="127" height="112" viewBox="0 0 127 112" fill="none" xmlns="http://www.w3.org/2000/svg">
<path d="M126.967 0.542969C122.497 17.294 118.038 33.7545 112.071 49.6451C104.964 68.5865 89.7099 79.0461 74.5569 81.7839L77.7529 111.52H49.7823L53.6935 82.4209C47.3238 81.4152 41.6917 79.3143 35.5903 76.0289C27.7679 71.8272 22.3704 65.3681 18.2693 57.6798C9.69819 41.5769 5.9993 23.9095 1.90932 6.3874C1.45115 4.44298 1.00418 2.49856 0.568359 0.542969H28.7289L45.2006 72.0171C45.7482 74.3639 47.8378 76.0289 50.2404 76.0289H76.8812C79.295 76.0289 81.3959 74.3415 81.9211 71.9836L98.2922 0.542969H126.967Z" fill="#FF4A40"/>
</svg>
