<svg width="205" height="119" viewBox="0 0 205 119" fill="none" xmlns="http://www.w3.org/2000/svg">
<path d="M27.2657 23.5942L27.7982 19.4322L18.0529 26.8978L22.2851 27.4259C22.9269 27.506 23.5138 27.3423 24.026 26.9445L26.3644 25.1585C26.8766 24.7607 27.1824 24.246 27.2657 23.5942ZM24.9607 83.0366L25.9271 80.1307C26.1349 79.4884 26.094 78.8645 25.7787 78.2508L23.7653 74.3313L19.7512 86.4612L23.7367 84.4641C24.3411 84.1613 24.7529 83.6788 24.9607 83.0366ZM31.7438 92.7302L32.3081 89.7228C32.427 89.0588 32.302 88.4459 31.9064 87.8793L29.3804 84.261L27.0449 96.8122L30.7242 94.3066C31.2822 93.9267 31.6249 93.3942 31.7438 92.7302ZM33.6981 13.7418L34.6513 9.65376L24.1957 16.1141L28.3527 17.0597C28.9831 17.2031 29.5837 17.0985 30.1338 16.7536L32.6421 15.2088C33.1922 14.8638 33.5488 14.382 33.6981 13.7418ZM24.4122 11.5562L28.3109 0L24.512 1.87653C23.9171 2.17041 23.5269 2.62598 23.3168 3.23522L22.3864 6.00634C22.1763 6.61557 22.2146 7.21666 22.504 7.7881L24.4122 11.5562ZM15.1271 15.0614C15.1618 15.7041 15.4239 16.2479 15.9079 16.6718L19.0993 19.4675L18.3616 7.30838L15.5432 10.4469C15.1018 10.9384 14.9113 11.5047 14.946 12.1474L15.1271 15.0614ZM15.8027 49.9636C16.4494 49.9484 17.0051 49.7003 17.4516 49.2316L19.4947 47.1217C19.9413 46.653 20.166 46.099 20.1502 45.4423L20.0494 41.2484L11.5381 50.0636L15.8027 49.9636ZM40.8974 100.719L41.0271 97.3896C41.0497 96.6553 40.8174 96.014 40.3008 95.4646L37.0019 91.9559L36.4813 105.849L40.049 102.577C40.5901 102.081 40.8748 101.454 40.8974 100.719ZM20.2935 71.785L21.5748 69.0005C21.8522 68.3844 21.8804 67.7598 21.6347 67.1157L20.066 63.0029L14.7371 74.6284L18.9193 73.0723C19.5535 72.8363 20.0161 72.4011 20.2935 71.785ZM17.7027 60.7708L19.4899 58.4454C19.8797 57.9296 20.0393 57.354 19.9481 56.7033L19.3656 52.5478L11.923 62.2607L16.1486 61.683C16.7894 61.5954 17.3129 61.2865 17.7027 60.7708ZM19.1533 38.0101L21.3786 36.0885C21.8657 35.6609 22.1396 35.129 22.1831 34.4734L22.4611 30.2873L13.1881 38.3182L17.4448 38.594C18.0903 38.6358 18.6662 38.4376 19.1533 38.0101ZM25.1428 97.8358L12.4349 95.5292L14.9608 99.1475C15.3564 99.7141 15.892 100.047 16.5626 100.174L19.6092 100.722C20.2798 100.848 20.9056 100.721 21.4635 100.341L25.1428 97.8358ZM20.9068 106.465L24.2057 109.974C24.7224 110.523 25.3527 110.799 26.0957 110.831L29.4675 110.95C30.2105 110.982 30.8649 110.748 31.406 110.252L34.9737 106.979L20.9068 106.465ZM51.1715 103.668C51.1387 102.935 50.859 102.313 50.3031 101.804L46.7533 98.5518L47.2809 112.427L50.5879 108.906C51.0894 108.372 51.3258 107.726 51.293 106.994L51.1715 103.668ZM14.1366 88.9152L18.1221 86.9181L5.84067 82.9535L7.85397 86.8729C8.16927 87.4867 8.65488 87.8878 9.30234 88.1015L12.2473 89.0475C12.8948 89.2612 13.5323 89.218 14.1366 88.9152ZM9.79226 25.0511C9.91273 25.6836 10.2455 26.1884 10.782 26.5453L14.3199 28.8992L11.9595 16.9435L9.58635 20.4228C9.21473 20.9677 9.1018 21.5539 9.22227 22.1864L9.79226 25.0511ZM35.5981 117.802C36.154 118.311 36.8026 118.54 37.5451 118.517L40.9121 118.388C41.6545 118.365 42.2886 118.084 42.7901 117.55L46.0971 114.029L32.0483 114.55L35.5981 117.802ZM1.78566 47.4651L3.92785 49.4768C4.39645 49.924 4.96342 50.1458 5.61015 50.1306L9.87474 50.0306L0.949339 41.6243L1.05021 45.8182C1.06599 46.475 1.3171 47.0178 1.78566 47.4651ZM5.8662 36.4295C6.21664 36.9721 6.71586 37.318 7.34838 37.4518L11.5196 38.3341L4.81829 28.1082L3.92883 32.2103C3.78953 32.8527 3.90597 33.4383 4.25641 33.9809L5.8662 36.4295ZM1.65099 60.7599L4.01066 62.5183C4.52765 62.9101 5.11647 63.0669 5.75724 62.9793L9.98277 62.4015L0.148438 55.0508L0.730911 59.2063C0.822133 59.8571 1.13403 60.3682 1.65099 60.7599ZM8.79278 76.7566L12.975 75.2005L1.20421 69.9374L2.77301 74.0502C3.01868 74.6943 3.45712 75.1453 4.07715 75.4274L6.90019 76.6848C7.52023 76.9669 8.15857 76.9926 8.79278 76.7566Z" fill="#787878"/>
<path d="M177.328 23.5942L176.796 19.4322L186.541 26.8978L182.309 27.4259C181.667 27.506 181.08 27.3423 180.568 26.9445L178.229 25.1585C177.717 24.7607 177.411 24.246 177.328 23.5942ZM179.633 83.0366L178.667 80.1307C178.459 79.4884 178.5 78.8645 178.815 78.2508L180.828 74.3313L184.843 86.4612L180.857 84.4641C180.253 84.1613 179.841 83.6788 179.633 83.0366ZM172.85 92.7302L172.286 89.7228C172.167 89.0588 172.292 88.4459 172.687 87.8793L175.213 84.261L177.549 96.8122L173.87 94.3066C173.312 93.9267 172.969 93.3942 172.85 92.7302ZM170.896 13.7418L169.942 9.65376L180.398 16.1141L176.241 17.0597C175.611 17.2031 175.01 17.0985 174.46 16.7536L171.952 15.2088C171.402 14.8638 171.045 14.382 170.896 13.7418ZM180.182 11.5562L176.283 0L180.082 1.87653C180.677 2.17041 181.067 2.62598 181.277 3.23522L182.207 6.00634C182.417 6.61557 182.379 7.21666 182.09 7.7881L180.182 11.5562ZM189.467 15.0614C189.432 15.7041 189.17 16.2479 188.686 16.6718L185.494 19.4675L186.232 7.30838L189.051 10.4469C189.492 10.9384 189.682 11.5047 189.648 12.1474L189.467 15.0614ZM188.791 49.9636C188.144 49.9484 187.589 49.7003 187.142 49.2316L185.099 47.1217C184.652 46.653 184.428 46.099 184.444 45.4423L184.544 41.2484L193.056 50.0636L188.791 49.9636ZM163.696 100.719L163.567 97.3896C163.544 96.6553 163.776 96.014 164.293 95.4646L167.592 91.9559L168.112 105.849L164.545 102.577C164.004 102.081 163.719 101.454 163.696 100.719ZM184.3 71.785L183.019 69.0005C182.742 68.3844 182.713 67.7598 182.959 67.1157L184.528 63.0029L189.857 74.6284L185.674 73.0723C185.04 72.8363 184.578 72.4011 184.3 71.785ZM186.891 60.7708L185.104 58.4454C184.714 57.9296 184.554 57.354 184.646 56.7033L185.228 52.5478L192.671 62.2607L188.445 61.683C187.804 61.5954 187.281 61.2865 186.891 60.7708ZM185.44 38.0101L183.215 36.0885C182.728 35.6609 182.454 35.129 182.411 34.4734L182.133 30.2873L191.406 38.3182L187.149 38.594C186.503 38.6358 185.928 38.4376 185.44 38.0101ZM179.451 97.8358L192.159 95.5292L189.633 99.1475C189.237 99.7141 188.702 100.047 188.031 100.174L184.985 100.722C184.314 100.848 183.688 100.721 183.13 100.341L179.451 97.8358ZM183.687 106.465L180.388 109.974C179.871 110.523 179.241 110.799 178.498 110.831L175.126 110.95C174.383 110.982 173.729 110.748 173.188 110.252L169.62 106.979L183.687 106.465ZM153.422 103.668C153.455 102.935 153.735 102.313 154.291 101.804L157.84 98.5518L157.313 112.427L154.006 108.906C153.504 108.372 153.268 107.726 153.301 106.994L153.422 103.668ZM190.457 88.9152L186.472 86.9181L198.753 82.9535L196.74 86.8729C196.424 87.4867 195.939 87.8878 195.291 88.1015L192.346 89.0475C191.699 89.2612 191.061 89.218 190.457 88.9152ZM194.801 25.0511C194.681 25.6836 194.348 26.1884 193.812 26.5453L190.274 28.8992L192.634 16.9435L195.007 20.4228C195.379 20.9677 195.492 21.5539 195.371 22.1864L194.801 25.0511ZM168.996 117.802C168.44 118.311 167.791 118.54 167.049 118.517L163.682 118.388C162.939 118.365 162.305 118.084 161.804 117.55L158.497 114.029L172.545 114.55L168.996 117.802ZM202.808 47.4651L200.666 49.4768C200.197 49.924 199.63 50.1458 198.984 50.1306L194.719 50.0306L203.644 41.6243L203.544 45.8182C203.528 46.475 203.277 47.0178 202.808 47.4651ZM198.728 36.4295C198.377 36.9721 197.878 37.318 197.245 37.4518L193.074 38.3341L199.775 28.1082L200.665 32.2103C200.804 32.8527 200.688 33.4383 200.337 33.9809L198.728 36.4295ZM202.943 60.7599L200.583 62.5183C200.066 62.9101 199.477 63.0669 198.837 62.9793L194.611 62.4015L204.445 55.0508L203.863 59.2063C203.772 59.8571 203.46 60.3682 202.943 60.7599ZM195.801 76.7566L191.619 75.2005L203.39 69.9374L201.821 74.0502C201.575 74.6943 201.137 75.1453 200.517 75.4274L197.694 76.6848C197.074 76.9669 196.435 76.9926 195.801 76.7566Z" fill="#787878"/>
</svg>
