<svg width="26" height="24" viewBox="0 0 26 24" fill="none" xmlns="http://www.w3.org/2000/svg">
<path d="M13 20.324L8.236 23.155C7.86272 23.3773 7.43546 23.4948 7 23.4948C6.56454 23.4948 6.13728 23.3773 5.764 23.155L2.164 21.0139C1.80971 20.8029 1.51639 20.5048 1.31246 20.1484C1.10854 19.7921 1.00091 19.3895 1 18.9798V15.1258C1.00091 14.7161 1.10854 14.3136 1.31246 13.9572C1.51639 13.6009 1.80971 13.3027 2.164 13.0917L7 10.2131M13 20.324V13.7817M13 20.324L17.764 23.155C18.1373 23.3773 18.5645 23.4948 19 23.4948C19.4355 23.4948 19.8627 23.3773 20.236 23.155L23.836 21.0139C24.1903 20.8029 24.4836 20.5048 24.6875 20.1484C24.8915 19.7921 24.9991 19.3895 25 18.9798V15.1258C24.9991 14.7161 24.8915 14.3136 24.6875 13.9572C24.4836 13.6009 24.1903 13.3027 23.836 13.0917L19 10.2131M13 13.7817L7 10.2131M13 13.7817L7 17.3502M13 13.7817L19 10.2131M13 13.7817L19 17.3502M13 13.7817V7.23934M7 10.2131V5.01494C7.00091 4.60524 7.10854 4.20271 7.31247 3.84635C7.51639 3.48999 7.80971 3.19187 8.164 2.98087L11.764 0.839749C12.1373 0.617444 12.5645 0.5 13 0.5C13.4355 0.5 13.8627 0.617444 14.236 0.839749L17.836 2.98087C18.1903 3.19187 18.4836 3.48999 18.6875 3.84635C18.8915 4.20271 18.9991 4.60524 19 5.01494V10.2131M7 17.3502L1.312 13.9601M7 17.3502V23.5M19 17.3502L24.688 13.9601M19 17.3502V23.5M13 7.23934L7.312 3.84922M13 7.23934L18.688 3.84922" stroke="#121212" stroke-linecap="round" stroke-linejoin="round"/>
</svg>
