<svg width="80" height="80" viewBox="0 0 80 80" fill="none" xmlns="http://www.w3.org/2000/svg">
<g opacity="0.2" clip-path="url(#clip0_2700_246)">
<path d="M79.3556 34.123H0.644531V79.3556H79.3556V34.123Z" stroke="black" stroke-width="2" stroke-miterlimit="10"/>
<path d="M39.9998 0.644531C51.9526 0.644531 61.6568 10.3487 61.6568 22.3016V32.0175C61.6568 33.1796 60.7133 34.1231 59.5512 34.1231H20.4484C19.2863 34.1231 18.3428 33.1796 18.3428 32.0175V22.3016C18.3428 10.3487 28.0469 0.644531 39.9998 0.644531Z" stroke="black" stroke-width="2" stroke-miterlimit="10"/>
<path d="M39.9996 39.6008C26.7082 39.6008 15.2452 46.6127 9.93457 56.7393C15.2452 66.8659 26.7082 73.8779 39.9996 73.8779C53.2911 73.8779 64.7541 66.8659 70.0647 56.7393C64.7541 46.6127 53.2911 39.6008 39.9996 39.6008Z" stroke="black" stroke-width="2" stroke-miterlimit="10"/>
<path d="M39.9995 70.6158C47.6633 70.6158 53.8761 64.4031 53.8761 56.7393C53.8761 49.0755 47.6633 42.8628 39.9995 42.8628C32.3358 42.8628 26.123 49.0755 26.123 56.7393C26.123 64.4031 32.3358 70.6158 39.9995 70.6158Z" stroke="black" stroke-width="2" stroke-miterlimit="10"/>
<path d="M72.3734 38.1355L7.62695 75.343" stroke="black" stroke-width="2" stroke-miterlimit="10"/>
</g>
<defs>
<clipPath id="clip0_2700_246">
<rect width="80" height="80" fill="white"/>
</clipPath>
</defs>
</svg>
