<svg width="26" height="26" viewBox="0 0 26 26" fill="none" xmlns="http://www.w3.org/2000/svg">
<path d="M11.4791 4.69127C14.2744 4.35816 17.1018 4.94905 19.5297 6.37371C21.9576 7.79838 23.8525 9.97852 24.925 12.5812C25.025 12.8506 25.025 13.147 24.925 13.4164C24.484 14.4856 23.9012 15.4906 23.1922 16.4044M15.5003 15.5896C14.8213 16.2453 13.912 16.6082 12.9681 16.6C12.0242 16.5918 11.1213 16.2132 10.4538 15.5457C9.78634 14.8783 9.40774 13.9753 9.39953 13.0314C9.39133 12.0875 9.75419 11.1782 10.41 10.4992M19.5743 19.5987C17.9825 20.5417 16.2065 21.1312 14.3668 21.3272C12.527 21.5233 10.6667 21.3213 8.91192 20.735C7.15715 20.1487 5.54902 19.1918 4.19666 17.9293C2.84429 16.6667 1.77933 15.128 1.07403 13.4176C0.974021 13.1482 0.974021 12.8518 1.07403 12.5824C2.13798 10.0023 4.01001 7.83674 6.40918 6.41086M0.99963 1.0001L24.9994 24.9999" stroke="#121212" stroke-linecap="round" stroke-linejoin="round"/>
</svg>
