<svg width="124" height="114" viewBox="0 0 124 114" fill="none" xmlns="http://www.w3.org/2000/svg">
<g clip-path="url(#clip0_2480_189)">
<path d="M26.3896 98.1968C32.3326 98.1968 37.1503 93.3791 37.1503 87.4361C37.1503 81.4931 32.3326 76.6754 26.3896 76.6754C20.4466 76.6754 15.6289 81.4931 15.6289 87.4361C15.6289 93.3791 20.4466 98.1968 26.3896 98.1968Z" stroke="black" stroke-width="2" stroke-miterlimit="10"/>
<path d="M26.3898 112.826C40.4122 112.826 51.7796 101.459 51.7796 87.4361C51.7796 73.4137 40.4122 62.0463 26.3898 62.0463C12.3674 62.0463 1 73.4137 1 87.4361C1 101.459 12.3674 112.826 26.3898 112.826Z" stroke="black" stroke-width="2" stroke-miterlimit="10"/>
<path d="M62 66.8766V51.811" stroke="black" stroke-width="2" stroke-miterlimit="10"/>
<path d="M61.9998 66.8766L48.3799 74.7401" stroke="black" stroke-width="2" stroke-miterlimit="10"/>
<path d="M62 66.8766L75.6211 74.7408" stroke="black" stroke-width="2" stroke-miterlimit="10"/>
<path d="M62.0002 51.8108C76.0226 51.8108 87.39 40.4434 87.39 26.421C87.39 12.3987 76.0226 1.03125 62.0002 1.03125C47.9778 1.03125 36.6104 12.3987 36.6104 26.421C36.6104 40.4434 47.9778 51.8108 62.0002 51.8108Z" stroke="black" stroke-width="2" stroke-miterlimit="10"/>
<path d="M71.3036 17.1174H52.6963V35.7247H71.3036V17.1174Z" stroke="black" stroke-width="2" stroke-miterlimit="10"/>
<path d="M97.61 112.826C111.632 112.826 123 101.459 123 87.4361C123 73.4137 111.632 62.0463 97.61 62.0463C83.5876 62.0463 72.2202 73.4137 72.2202 87.4361C72.2202 101.459 83.5876 112.826 97.61 112.826Z" stroke="black" stroke-width="2" stroke-miterlimit="10"/>
<path d="M97.61 77.0215L88.2256 93.2758H106.994L97.61 77.0215Z" stroke="black" stroke-width="2" stroke-miterlimit="10"/>
</g>
<defs>
<clipPath id="clip0_2480_189">
<rect width="124" height="113.795" fill="white" transform="translate(0 0.03125)"/>
</clipPath>
</defs>
</svg>
