<svg width="162" height="34" viewBox="0 0 162 34" fill="none" xmlns="http://www.w3.org/2000/svg">
<g clip-path="url(#clip0_2253_1016)">
<path d="M156.288 33.479H148.229C147.594 30.6981 143.933 15.3442 143.933 15.3442C143.781 14.6814 143.191 14.211 142.509 14.211H134.015C133.333 14.211 132.739 14.6845 132.591 15.3537C132.591 15.3537 128.651 32.9203 128.525 33.479H120.507C121.615 29.366 122.771 25.3286 124.232 21.405C125.713 17.4371 128.8 14.6151 132.506 13.1378C131.477 12.8253 130.47 12.4086 129.501 11.8877C127.291 10.7008 125.766 8.87632 124.611 6.70141C123.822 5.21779 123.178 3.68999 122.632 2.13062H130.444L132.446 10.5683C132.597 11.2312 133.187 11.7015 133.869 11.7015H142.364C143.049 11.7015 143.639 11.228 143.791 10.5588L145.675 2.13062H152.894C152.632 2.90399 152.361 3.66789 152.077 4.43179C150.596 8.40283 147.509 11.2217 143.8 12.699C144.829 13.0115 145.836 13.4282 146.805 13.949C149.018 15.1391 150.543 16.9604 151.698 19.1353C154.094 23.6399 155.145 28.5768 156.288 33.479Z" fill="white"/>
<path d="M35.8498 5.40107C31.4369 2.44962 26.4873 1.51842 21.544 1.44897C16.1588 1.49317 11.2566 2.43384 6.85624 5.24639C-2.12752 10.9851 -2.31691 23.9746 6.49007 29.947C14.4164 35.329 27.952 35.3511 35.8972 30.0006C44.701 24.0725 44.6694 11.3103 35.8498 5.40107ZM33.7949 28.7696C33.7949 29.5934 33.1225 30.2626 32.2986 30.2626H10.2086C9.38469 30.2626 8.71549 29.5934 8.71549 28.7696V6.6795C8.71549 5.85247 9.38469 5.18326 10.2086 5.18326H32.2955C33.1194 5.18326 33.7917 5.85247 33.7917 6.6795V28.7664L33.7949 28.7696Z" fill="white"/>
<path d="M118.913 2.13062C117.651 6.86239 116.391 11.5121 114.705 16.0008C112.698 21.3513 108.389 24.3059 104.109 25.0793L105.011 33.479H97.1104L98.2152 25.2592C96.4159 24.9751 94.825 24.3817 93.1015 23.4536C90.8918 22.2667 89.3672 20.4422 88.2087 18.2704C85.7876 13.7217 84.7427 8.73112 83.5874 3.78153C83.458 3.23228 83.3317 2.68302 83.2086 2.13062H91.1633L95.8162 22.3204C95.9709 22.9833 96.5611 23.4536 97.2398 23.4536H104.765C105.447 23.4536 106.04 22.977 106.189 22.3109L110.813 2.13062H118.913Z" fill="white"/>
<path d="M159.893 2.19385C159.93 2.17807 159.962 2.15913 159.997 2.13072C160.016 2.12125 160.031 2.10547 160.05 2.08653C160.129 2.00446 160.218 1.87503 160.218 1.65407C160.218 1.2879 159.937 1.00696 159.391 1.00696H158.491V2.76836H159.138V2.30118H159.28L159.605 2.76836H160.287L159.893 2.19385ZM159.138 1.54675H159.353C159.476 1.54675 159.533 1.60988 159.533 1.68879C159.533 1.76771 159.476 1.834 159.353 1.834H159.138V1.54675ZM159.893 2.19385C159.93 2.17807 159.962 2.15913 159.997 2.13072C160.016 2.12125 160.031 2.10547 160.05 2.08653C160.129 2.00446 160.218 1.87503 160.218 1.65407C160.218 1.2879 159.937 1.00696 159.391 1.00696H158.491V2.76836H159.138V2.30118H159.28L159.605 2.76836H160.287L159.893 2.19385ZM159.138 1.54675H159.353C159.476 1.54675 159.533 1.60988 159.533 1.68879C159.533 1.76771 159.476 1.834 159.353 1.834H159.138V1.54675ZM159.28 0C158.137 0 157.266 0.861758 157.266 1.94132C157.266 2.00446 157.269 2.06759 157.276 2.13072C157.37 3.1219 158.207 3.88265 159.28 3.88265C160.353 3.88265 161.19 3.1219 161.285 2.13072C161.291 2.06759 161.294 2.00446 161.294 1.94132C161.294 0.861758 160.426 0 159.28 0ZM159.28 3.27342C158.554 3.27342 158.005 2.85043 157.926 2.13072C157.916 2.07075 157.913 2.00761 157.913 1.94132C157.913 1.10798 158.491 0.609228 159.28 0.609228C160.072 0.609228 160.647 1.10798 160.647 1.94132C160.647 2.00761 160.644 2.07075 160.634 2.13072C160.555 2.85043 160.009 3.27342 159.28 3.27342ZM159.997 2.13072C160.016 2.12125 160.031 2.10547 160.05 2.08653C160.129 2.00446 160.218 1.87503 160.218 1.65407C160.218 1.2879 159.937 1.00696 159.391 1.00696H158.491V2.76836H159.138V2.30118H159.28L159.605 2.76836H160.287L159.893 2.19385C159.93 2.17807 159.962 2.15913 159.997 2.13072ZM159.138 1.54675H159.353C159.476 1.54675 159.533 1.60988 159.533 1.68879C159.533 1.76771 159.476 1.834 159.353 1.834H159.138V1.54675Z" fill="white"/>
<path d="M78.3001 11.1809C78.0066 10.518 77.6909 9.86141 77.3468 9.2143C76.1883 7.03939 74.6637 5.21801 72.4541 4.02797C64.1679 -0.422875 54.1046 2.75585 50.8501 11.4839C48.2301 18.5137 46.6013 25.8434 44.4485 33.3719H53.0755L59.2657 5.29377C59.4172 4.62457 60.0075 4.15107 60.6925 4.15107H68.2147C68.8965 4.15107 69.4868 4.62141 69.6383 5.2843L76.1189 33.3719H84.1241C83.376 29.9723 80.0678 15.1803 78.3001 11.1809Z" fill="white"/>
</g>
<defs>
<clipPath id="clip0_2253_1016">
<rect width="161.294" height="34" fill="white"/>
</clipPath>
</defs>
</svg>
