<svg width="36" height="31" viewBox="0 0 36 31" fill="none" xmlns="http://www.w3.org/2000/svg">
<path d="M21.1 17.4C21.1 14.5 21.5 11.9 22.4 9.8C23.2 7.7 24.3 6 25.7 4.6C27 3.2 28.6 2.1 30.4 1.4C32.1 0.700005 34 0.199997 35.9 0V6C34 6.5 32.3 7.6 31 9.2C29.7 10.9 29 13 29 15.7V15.9H35.7V30.6H21.1V17.4ZM0 17.4C0 14.5 0.4 11.9 1.3 9.8C2.1 7.7 3.2 6 4.6 4.6C5.9 3.2 7.5 2.1 9.3 1.4C11.1 0.700005 13 0.199997 14.9 0V6C13 6.5 11.3 7.6 10 9.2C8.6 10.9 7.9 13 7.9 15.7V15.9H14.6V30.6H0V17.4Z" fill="white"/>
</svg>
