<svg width="26" height="28" viewBox="0 0 26 28" fill="none" xmlns="http://www.w3.org/2000/svg">
<path d="M23.7369 5.15059C23.7369 7.24345 18.6471 8.94006 12.3685 8.94006C6.0899 8.94006 1.00008 7.24345 1.00008 5.15059M23.7369 5.15059C23.7369 3.05772 18.6471 1.36111 12.3685 1.36111C6.0899 1.36111 1.00008 3.05772 1.00008 5.15059M23.7369 5.15059V8.94006M1.00008 5.15059L1.00008 22.8348C0.99305 23.4423 1.42425 24.0414 2.25734 24.5817C3.09044 25.122 4.301 25.5876 5.78699 25.9393C7.27298 26.291 8.99084 26.5184 10.7958 26.6025C12.6007 26.6865 14.4398 26.6247 16.158 26.4222M23.7369 13.9927L19.9474 20.3085H25.0001L21.2106 26.6243M1.00008 13.9927C1.00191 14.5832 1.41779 15.1655 2.21455 15.693C3.01131 16.2204 4.16689 16.6785 5.58909 17.0307C7.01129 17.3829 8.66073 17.6194 10.4058 17.7214C12.1509 17.8233 13.9433 17.7879 15.6401 17.6179" stroke="#121212" stroke-linecap="round" stroke-linejoin="round"/>
</svg>
