<svg width="42" height="42" viewBox="0 0 42 42" fill="none" xmlns="http://www.w3.org/2000/svg">
<path d="M29.4975 38.2583C26.8433 39.5929 23.8455 40.3443 20.6721 40.3443C9.80751 40.3443 1 31.5368 1 20.6721C1 9.80751 9.80751 1 20.6721 1C31.5368 1 40.3443 9.80751 40.3443 20.6721C40.3443 22.7922 40.0089 24.8339 39.3883 26.7471" stroke="black" stroke-width="2" stroke-miterlimit="10"/>
<path d="M26.564 34.5175H10.1445V6.82678H25.2185L33.0773 14.6856V24.234" stroke="black" stroke-width="2" stroke-miterlimit="10"/>
<path d="M33.077 40.1673C36.839 39.1592 40.0847 35.2127 40.0847 32.4465V27.0248L33.077 24.234L26.0693 27.0248V32.4465C26.0693 35.2127 29.315 39.1592 33.077 40.1673Z" stroke="black" stroke-width="2" stroke-miterlimit="10"/>
<path d="M33.0776 14.6856H25.2188V6.82678" stroke="black" stroke-width="2" stroke-miterlimit="10"/>
<path d="M13.6865 19.6707H29.5365" stroke="black" stroke-width="2" stroke-miterlimit="10"/>
<path d="M13.6865 14.7073H22.9386" stroke="black" stroke-width="2" stroke-miterlimit="10"/>
<path d="M13.6865 24.6324H29.5365" stroke="black" stroke-width="2" stroke-miterlimit="10"/>
<path d="M13.6865 29.5941H26.0702" stroke="black" stroke-width="2" stroke-miterlimit="10"/>
</svg>
