<svg width="108" height="65" viewBox="0 0 108 65" fill="none" xmlns="http://www.w3.org/2000/svg">
<g clip-path="url(#clip0_2474_288)">
<path d="M30.6948 23.3807C30.6948 24.6818 30.8369 25.7367 31.0856 26.5104C31.3698 27.284 31.7251 28.128 32.2224 29.0422C32.4001 29.3236 32.4711 29.6049 32.4711 29.851C32.4711 30.2027 32.258 30.5543 31.7961 30.906L29.558 32.3829C29.2382 32.5939 28.9185 32.6994 28.6343 32.6994C28.279 32.6994 27.9238 32.5236 27.5685 32.2071C27.0711 31.6796 26.6448 31.117 26.2895 30.5543C25.9343 29.9565 25.579 29.2884 25.1882 28.4796C22.4172 31.7148 18.9356 33.3323 14.7435 33.3323C11.7593 33.3323 9.37901 32.4884 7.63822 30.8005C5.89744 29.1126 5.00928 26.862 5.00928 24.0488C5.00928 21.0598 6.07507 18.6334 8.24217 16.8049C10.4093 14.9763 13.2869 14.062 16.9461 14.062C18.154 14.062 19.3974 14.1675 20.7119 14.3433C22.0264 14.5192 23.3764 14.8005 24.7974 15.117V12.5499C24.7974 9.8774 24.229 8.01366 23.1277 6.92355C21.9909 5.83345 20.0724 5.30597 17.3369 5.30597C16.0935 5.30597 14.8145 5.44663 13.5001 5.76311C12.1856 6.0796 10.9066 6.46641 9.66323 6.95872C9.0948 7.20487 8.66849 7.34553 8.4198 7.41586C8.17112 7.48619 7.99349 7.52136 7.85138 7.52136C7.35401 7.52136 7.10533 7.16971 7.10533 6.43125V4.70817C7.10533 4.14553 7.17638 3.72355 7.35401 3.4774C7.53165 3.23125 7.85138 2.98509 8.34875 2.73894C9.59217 2.10597 11.0843 1.5785 12.8251 1.15652C14.5659 0.699379 16.4132 0.48839 18.3672 0.48839C22.5948 0.48839 25.6856 1.43784 27.6751 3.33674C29.629 5.23564 30.6238 8.11916 30.6238 11.9873V23.3807H30.6948ZM16.2711 28.7258C17.4435 28.7258 18.6514 28.5148 19.9303 28.0928C21.2093 27.6708 22.3461 26.8972 23.3053 25.8422C23.8738 25.1741 24.3001 24.4356 24.5132 23.5917C24.7264 22.7477 24.8685 21.728 24.8685 20.5323V19.0554C23.8382 18.8093 22.7369 18.5983 21.6001 18.4576C20.4632 18.317 19.3619 18.2466 18.2606 18.2466C15.8803 18.2466 14.1395 18.7038 12.9672 19.6532C11.7948 20.6027 11.2264 21.9389 11.2264 23.6972C11.2264 25.3499 11.6527 26.5807 12.5409 27.4247C13.3935 28.3038 14.6369 28.7258 16.2711 28.7258ZM44.7988 32.5236C44.1593 32.5236 43.733 32.4181 43.4488 32.1719C43.1645 31.9609 42.9159 31.4686 42.7027 30.8005L34.354 3.61806C34.1409 2.91476 34.0343 2.45762 34.0343 2.21147C34.0343 1.64883 34.3185 1.33235 34.8869 1.33235H38.3685C39.0435 1.33235 39.5053 1.43784 39.754 1.68399C40.0382 1.89498 40.2514 2.38729 40.4645 3.05542L46.433 26.3345L51.9751 3.05542C52.1527 2.35213 52.3659 1.89498 52.6501 1.68399C52.9343 1.47301 53.4316 1.33235 54.0711 1.33235H56.9132C57.5882 1.33235 58.0501 1.43784 58.3343 1.68399C58.6185 1.89498 58.8672 2.38729 59.0093 3.05542L64.6224 26.6159L70.7685 3.05542C70.9816 2.35213 71.2303 1.89498 71.479 1.68399C71.7632 1.47301 72.2251 1.33235 72.8645 1.33235H76.1685C76.7369 1.33235 77.0566 1.61366 77.0566 2.21147C77.0566 2.38729 77.0211 2.56312 76.9856 2.7741C76.9501 2.98509 76.879 3.26641 76.7369 3.65323L68.1751 30.8356C67.9619 31.5389 67.7132 31.9961 67.429 32.2071C67.1448 32.4181 66.683 32.5587 66.079 32.5587H63.0238C62.3488 32.5587 61.8869 32.4532 61.6027 32.2071C61.3185 31.9609 61.0698 31.5038 60.9277 30.8005L55.4211 8.11916L49.9501 30.7653C49.7724 31.4686 49.5593 31.9258 49.2751 32.1719C48.9909 32.4181 48.4935 32.5236 47.854 32.5236H44.7988ZM90.4501 33.473C88.6027 33.473 86.7553 33.262 84.979 32.84C83.2027 32.4181 81.8172 31.9609 80.8935 31.4334C80.3251 31.117 79.9343 30.7653 79.7922 30.4488C79.6501 30.1323 79.579 29.7807 79.579 29.4642V27.6708C79.579 26.9323 79.8632 26.5807 80.3961 26.5807C80.6093 26.5807 80.8224 26.6159 81.0356 26.6862C81.2488 26.7565 81.5685 26.8972 81.9238 27.0378C83.1317 27.5653 84.4461 27.9873 85.8316 28.2686C87.2527 28.5499 88.6382 28.6906 90.0593 28.6906C92.2974 28.6906 94.0382 28.3038 95.2461 27.5301C96.454 26.7565 97.0935 25.6312 97.0935 24.1895C97.0935 23.2049 96.7738 22.3961 96.1343 21.728C95.4948 21.0598 94.2869 20.462 92.5461 19.8994L87.3948 18.317C84.8014 17.5082 82.883 16.3126 81.7106 14.7301C80.5382 13.1829 79.9343 11.4598 79.9343 9.63125C79.9343 8.15432 80.254 6.85323 80.8935 5.72795C81.533 4.60268 82.3856 3.61806 83.4514 2.84443C84.5172 2.03564 85.7251 1.43784 87.1461 1.01586C88.5672 0.593884 90.0593 0.41806 91.6224 0.41806C92.404 0.41806 93.2211 0.453225 94.0027 0.55872C94.8198 0.664214 95.5659 0.804873 96.3119 0.945533C97.0224 1.12136 97.6974 1.29718 98.3369 1.50817C98.9764 1.71916 99.4738 1.93015 99.829 2.14114C100.326 2.42246 100.682 2.70377 100.895 3.02026C101.108 3.30158 101.215 3.68839 101.215 4.1807V5.83345C101.215 6.57191 100.93 6.95872 100.397 6.95872C100.113 6.95872 99.6514 6.81806 99.0474 6.53674C97.0224 5.62246 94.7488 5.16531 92.2264 5.16531C90.2014 5.16531 88.6027 5.4818 87.5014 6.14993C86.4001 6.81806 85.8316 7.83784 85.8316 9.2796C85.8316 10.2642 86.1869 11.1082 86.8974 11.7763C87.608 12.4444 88.9224 13.1126 90.8053 13.7104L95.8501 15.2928C98.408 16.1016 100.255 17.2269 101.357 18.6686C102.458 20.1104 102.991 21.7631 102.991 23.5917C102.991 25.1038 102.671 26.4752 102.067 27.6708C101.428 28.8664 100.575 29.9214 99.4738 30.7653C98.3724 31.6444 97.058 32.2774 95.5303 32.7345C93.9316 33.2269 92.2619 33.473 90.4501 33.473Z" fill="#252F3E"/>
<path fill-rule="evenodd" clip-rule="evenodd" d="M97.1647 50.5631C85.4765 59.1082 68.4949 63.6444 53.8936 63.6444C33.4305 63.6444 14.9923 56.1543 1.06599 43.706C-0.0353258 42.7214 0.959411 41.3851 2.27388 42.1587C17.337 50.8093 35.9173 56.0488 55.137 56.0488C68.1041 56.0488 82.3502 53.3763 95.4594 47.8906C97.4134 47.0115 99.0831 49.1565 97.1647 50.5631Z" fill="#FF9900"/>
<path fill-rule="evenodd" clip-rule="evenodd" d="M102.032 45.0774C100.54 43.1785 92.1554 44.1631 88.3541 44.6203C87.2173 44.7609 87.0396 43.7763 88.0699 43.0378C94.7488 38.3961 105.726 39.7323 107.005 41.2796C108.284 42.862 106.65 53.7279 100.398 58.9323C99.4383 59.7411 98.5146 59.3192 98.9409 58.2642C100.362 54.7829 103.524 46.9411 102.032 45.0774Z" fill="#FF9900"/>
</g>
<defs>
<clipPath id="clip0_2474_288">
<rect width="108" height="64" fill="white" transform="translate(0 0.03125)"/>
</clipPath>
</defs>
</svg>
