<svg width="160" height="55" viewBox="0 0 160 55" fill="none" xmlns="http://www.w3.org/2000/svg">
<g clip-path="url(#clip0_2474_295)">
<path d="M68.0886 27.7239C68.0886 35.2193 62.2121 40.7426 55.0003 40.7426C47.7886 40.7426 41.9121 35.2193 41.9121 27.7239C41.9121 20.1756 47.7886 14.7052 55.0003 14.7052C62.2121 14.7052 68.0886 20.1756 68.0886 27.7239ZM62.3592 27.7239C62.3592 23.04 58.9533 19.8352 55.0003 19.8352C51.0474 19.8352 47.6415 23.04 47.6415 27.7239C47.6415 32.3608 51.0474 35.6126 55.0003 35.6126C58.9533 35.6126 62.3592 32.355 62.3592 27.7239Z" fill="#EA4335"/>
<path d="M96.3239 27.7239C96.3239 35.2193 90.4475 40.7426 83.2357 40.7426C76.0239 40.7426 70.1475 35.2193 70.1475 27.7239C70.1475 20.1815 76.0239 14.7052 83.2357 14.7052C90.4475 14.7052 96.3239 20.1756 96.3239 27.7239ZM90.5945 27.7239C90.5945 23.04 87.1886 19.8352 83.2357 19.8352C79.2828 19.8352 75.8769 23.04 75.8769 27.7239C75.8769 32.3608 79.2828 35.6126 83.2357 35.6126C87.1886 35.6126 90.5945 32.355 90.5945 27.7239Z" fill="#FBBC05"/>
<path d="M123.382 15.4917V38.8643C123.382 48.4786 117.7 52.4054 110.982 52.4054C104.658 52.4054 100.852 48.1852 99.4172 44.7339L104.405 42.6619C105.294 44.7808 107.47 47.2813 110.976 47.2813C115.276 47.2813 117.941 44.6341 117.941 39.6508V37.7784H117.741C116.458 39.3573 113.988 40.7367 110.87 40.7367C104.347 40.7367 98.3701 35.0667 98.3701 27.7708C98.3701 20.4221 104.347 14.7052 110.87 14.7052C113.982 14.7052 116.452 16.0845 117.741 17.6165H117.941V15.4976H123.382V15.4917ZM118.347 27.7708C118.347 23.1867 115.282 19.8352 111.382 19.8352C107.429 19.8352 104.117 23.1867 104.117 27.7708C104.117 32.308 107.429 35.6126 111.382 35.6126C115.282 35.6126 118.347 32.308 118.347 27.7708Z" fill="#4285F4"/>
<path d="M132.353 1.79211V39.9443H126.765V1.79211H132.353Z" fill="#34A853"/>
<path d="M154.129 32.0086L158.576 34.9669C157.141 37.0858 153.682 40.7367 147.706 40.7367C140.294 40.7367 134.759 35.0197 134.759 27.718C134.759 19.976 140.341 14.6993 147.065 14.6993C153.835 14.6993 157.147 20.0758 158.229 22.9812L158.823 24.4604L141.382 31.6682C142.718 34.2801 144.794 35.6125 147.706 35.6125C150.624 35.6125 152.647 34.1804 154.129 32.0086ZM140.441 27.3247L152.1 22.4941C151.459 20.8682 149.529 19.7354 147.259 19.7354C144.347 19.7354 140.294 22.3004 140.441 27.3247Z" fill="#EA4335"/>
<path d="M20.759 24.3371V18.8139H39.4119C39.5943 19.7765 39.6884 20.9152 39.6884 22.1478C39.6884 26.2917 38.5531 31.4158 34.8943 35.0667C31.3354 38.7645 26.7884 40.7367 20.7649 40.7367C9.60015 40.7367 0.211914 31.6623 0.211914 20.5219C0.211914 9.38148 9.60015 0.307129 20.7649 0.307129C26.9413 0.307129 31.3413 2.72539 34.6472 5.87735L30.7413 9.77474C28.3707 7.55604 25.159 5.83039 20.759 5.83039C12.606 5.83039 6.22956 12.3867 6.22956 20.5219C6.22956 28.6571 12.606 35.2134 20.759 35.2134C26.0472 35.2134 29.059 33.0945 30.9884 31.1693C32.5531 29.608 33.5825 27.3776 33.9884 24.3313L20.759 24.3371Z" fill="#4285F4"/>
</g>
<defs>
<clipPath id="clip0_2474_295">
<rect width="160" height="54" fill="white" transform="translate(0 0.03125)"/>
</clipPath>
</defs>
</svg>
