<svg width="188" height="42" viewBox="0 0 188 42" fill="none" xmlns="http://www.w3.org/2000/svg">
<path d="M188 19.12V15.8137H183.894V10.6737L183.756 10.7163L179.9 11.8962L179.823 11.9193V15.8139H173.737V13.6443C173.737 12.634 173.963 11.8609 174.408 11.3453C174.85 10.8359 175.482 10.577 176.289 10.577C176.869 10.577 177.469 10.7135 178.073 10.9829L178.225 11.0505V7.56857L178.153 7.54238C177.59 7.33979 176.823 7.23776 175.873 7.23776C174.675 7.23776 173.587 7.49837 172.638 8.01486C171.689 8.53208 170.942 9.27045 170.419 10.2092C169.897 11.1469 169.633 12.2299 169.633 13.4284V15.8137H166.774V19.12H169.633V33.0487H173.737V19.12H179.823V27.9715C179.823 31.6169 181.543 33.4643 184.934 33.4643C185.491 33.4643 186.078 33.399 186.677 33.2711C187.286 33.1398 187.702 33.0087 187.946 32.8687L188 32.8367V29.4998L187.833 29.6102C187.61 29.7586 187.333 29.8799 187.008 29.9701C186.681 30.062 186.408 30.108 186.197 30.108C185.403 30.108 184.815 29.8939 184.45 29.4715C184.081 29.0452 183.894 28.2997 183.894 27.2569V19.12H188ZM157.609 30.1085C156.119 30.1085 154.944 29.6146 154.117 28.6416C153.284 27.6637 152.862 26.2696 152.862 24.4982C152.862 22.6707 153.284 21.2403 154.117 20.2452C154.945 19.2566 156.109 18.7548 157.575 18.7548C158.998 18.7548 160.131 19.234 160.942 20.1799C161.758 21.1307 162.172 22.5496 162.172 24.3984C162.172 26.2699 161.783 27.7076 161.015 28.6693C160.253 29.6237 159.107 30.1085 157.609 30.1085ZM157.791 15.3985C154.949 15.3985 152.692 16.2313 151.082 17.8737C149.474 19.5163 148.658 21.7894 148.658 24.6304C148.658 27.3289 149.454 29.4995 151.025 31.0808C152.595 32.6626 154.732 33.4639 157.375 33.4639C160.13 33.4639 162.343 32.6195 163.951 30.9544C165.56 29.291 166.375 27.0394 166.375 24.2647C166.375 21.524 165.61 19.3373 164.101 17.7666C162.592 16.1951 160.468 15.3985 157.791 15.3985ZM142.041 15.3985C140.108 15.3985 138.509 15.893 137.287 16.868C136.058 17.8488 135.435 19.1351 135.435 20.6916C135.435 21.5008 135.569 22.2195 135.834 22.8291C136.101 23.4407 136.513 23.9792 137.061 24.4311C137.604 24.8794 138.443 25.349 139.555 25.8267C140.49 26.2114 141.187 26.5367 141.63 26.7932C142.063 27.0445 142.37 27.2971 142.544 27.5432C142.712 27.7839 142.798 28.1135 142.798 28.5201C142.798 29.6781 141.93 30.2415 140.146 30.2415C139.484 30.2415 138.729 30.1033 137.903 29.8308C137.081 29.5625 136.307 29.1696 135.605 28.6658L135.434 28.5436V32.4949L135.497 32.524C136.078 32.7921 136.81 33.0182 137.673 33.196C138.534 33.3741 139.317 33.4646 139.997 33.4646C142.094 33.4646 143.784 32.9678 145.016 31.987C146.257 30.9995 146.886 29.6828 146.886 28.0724C146.886 26.9106 146.547 25.9144 145.88 25.1109C145.217 24.314 144.068 23.5824 142.464 22.9357C141.186 22.4228 140.367 21.9971 140.03 21.6703C139.704 21.3545 139.539 20.9081 139.539 20.3426C139.539 19.8414 139.743 19.4399 140.162 19.1147C140.584 18.7879 141.171 18.6217 141.908 18.6217C142.592 18.6217 143.292 18.7297 143.988 18.9414C144.683 19.1531 145.293 19.4366 145.803 19.7834L145.971 19.898V16.1498L145.907 16.1221C145.436 15.9205 144.816 15.7479 144.063 15.6078C143.313 15.4687 142.633 15.3985 142.041 15.3985ZM124.736 30.1085C123.246 30.1085 122.072 29.6146 121.244 28.6416C120.411 27.6637 119.99 26.2699 119.99 24.4982C119.99 22.6707 120.412 21.2403 121.245 20.2452C122.072 19.2566 123.235 18.7548 124.703 18.7548C126.125 18.7548 127.258 19.234 128.07 20.1799C128.885 21.1307 129.299 22.5496 129.299 24.3984C129.299 26.2699 128.91 27.7076 128.142 28.6693C127.38 29.6237 126.235 30.1085 124.736 30.1085ZM124.919 15.3985C122.076 15.3985 119.818 16.2313 118.21 17.8737C116.601 19.5163 115.785 21.7894 115.785 24.6304C115.785 27.33 116.582 29.4995 118.152 31.0808C119.722 32.6626 121.859 33.4639 124.503 33.4639C127.257 33.4639 129.47 32.6195 131.079 30.9544C132.687 29.291 133.503 27.0394 133.503 24.2647C133.503 21.524 132.738 19.3373 131.228 17.7666C129.718 16.1951 127.595 15.3985 124.919 15.3985ZM109.556 18.7984V15.8137H105.501V33.0483H109.556V24.2322C109.556 22.7331 109.895 21.5015 110.566 20.5713C111.228 19.6521 112.111 19.1864 113.188 19.1864C113.553 19.1864 113.963 19.2466 114.407 19.3657C114.846 19.4841 115.165 19.6126 115.352 19.748L115.523 19.8714V15.7842L115.457 15.7561C115.08 15.5957 114.545 15.5147 113.87 15.5147C112.851 15.5147 111.939 15.8421 111.158 16.4866C110.473 17.0531 109.977 17.8298 109.599 18.7984H109.556ZM98.2413 15.3985C96.3814 15.3985 94.7224 15.7973 93.3113 16.5835C91.8973 17.3715 90.8038 18.4966 90.0598 19.9271C89.3191 21.3542 88.943 23.0211 88.943 24.8801C88.943 26.5085 89.3076 28.0029 90.0283 29.32C90.7494 30.6392 91.77 31.6713 93.062 32.3871C94.3521 33.102 95.8432 33.4644 97.4942 33.4644C99.4208 33.4644 101.066 33.0793 102.385 32.3196L102.438 32.2891V28.5749L102.268 28.6993C101.67 29.1345 101.003 29.4818 100.284 29.7321C99.5676 29.9821 98.9144 30.1085 98.3415 30.1085C96.7507 30.1085 95.4737 29.6108 94.5467 28.6294C93.6178 27.6468 93.1467 26.267 93.1467 24.5308C93.1467 22.7836 93.6379 21.3684 94.606 20.3241C95.5712 19.2829 96.8506 18.7548 98.4084 18.7548C99.7409 18.7548 101.039 19.206 102.268 20.0971L102.438 20.2206V16.3071L102.383 16.2762C101.921 16.0174 101.29 15.8037 100.507 15.6417C99.728 15.48 98.9656 15.3985 98.2413 15.3985ZM86.1508 15.8139H82.0967V33.0483H86.1508V15.8139ZM84.1652 8.47189C83.498 8.47189 82.916 8.69903 82.4379 9.14915C81.9578 9.60053 81.7143 10.1689 81.7143 10.8396C81.7143 11.4997 81.9549 12.0577 82.4304 12.4971C82.9029 12.9352 83.4867 13.1572 84.1654 13.1572C84.844 13.1572 85.4299 12.9352 85.908 12.4978C86.3892 12.0577 86.6333 11.4999 86.6333 10.8396C86.6333 10.1923 86.3958 9.62981 85.9279 9.16733C85.4603 8.70576 84.8671 8.47189 84.1652 8.47189ZM74.05 14.5423V33.0483H78.1874V8.99947H72.4611L65.1825 26.8623L58.1191 8.99947H52.1597V33.0482H56.0477V14.5405H56.1812L63.64 33.0483H66.5742L73.9165 14.5423H74.05Z" fill="black"/>
<path d="M19.0711 20.0347H-0.000488281V0.963104H19.0711V20.0347Z" fill="black"/>
<path d="M40.1284 20.0347H21.0571V0.963104H40.1284V20.0347Z" fill="black"/>
<path d="M19.0706 41.0994H-0.000488281V22.028H19.0706V41.0994Z" fill="black"/>
<path d="M40.1284 41.0994H21.0571V22.028H40.1284V41.0994Z" fill="black"/>
</svg>
