<svg width="166" height="45" viewBox="0 0 166 45" fill="none" xmlns="http://www.w3.org/2000/svg">
<g clip-path="url(#clip0_2474_272)">
<path d="M51.6904 21.1842C51.6904 28.3782 56.4172 33.3942 62.9672 33.3942C69.5171 33.3942 74.2439 28.3782 74.2439 21.1842C74.2439 13.9902 69.5171 8.97424 62.9672 8.97424C56.4172 8.97424 51.6904 13.9902 51.6904 21.1842ZM69.9223 21.1842C69.9223 26.3322 67.0525 29.6652 62.9672 29.6652C58.8819 29.6652 56.0121 26.3322 56.0121 21.1842C56.0121 16.0362 58.8819 12.7032 62.9672 12.7032C67.0525 12.7032 69.9223 16.0362 69.9223 21.1842Z" fill="black"/>
<path d="M86.4143 33.3943C91.3775 33.3943 94.2135 29.3022 94.2135 24.3853C94.2135 19.4683 91.3775 15.3763 86.4143 15.3763C84.1185 15.3763 82.4303 16.2673 81.3162 17.5543V15.7063H77.2646V38.9713H81.3162V31.2163C82.4303 32.5033 84.1185 33.3943 86.4143 33.3943ZM81.2149 23.8903C81.2149 20.6233 83.1056 18.8413 85.604 18.8413C88.5414 18.8413 90.1282 21.0853 90.1282 24.3853C90.1282 27.6852 88.5414 29.9293 85.604 29.9293C83.1056 29.9293 81.2149 28.1143 81.2149 24.9133V23.8903Z" fill="black"/>
<path d="M105.178 33.3943C108.723 33.3943 111.525 31.5793 112.774 28.5433L109.297 27.2563C108.757 29.0383 107.17 30.0283 105.178 30.0283C102.578 30.0283 100.755 28.2133 100.451 25.2433H112.876V23.9233C112.876 19.1713 110.141 15.3763 105.009 15.3763C99.8771 15.3763 96.5684 19.3033 96.5684 24.3853C96.5684 29.7313 100.113 33.3943 105.178 33.3943ZM104.975 18.7093C107.541 18.7093 108.757 20.3593 108.79 22.2733H100.654C101.261 19.9303 102.882 18.7093 104.975 18.7093Z" fill="black"/>
<path d="M115.916 33.0312H119.968V22.8673C119.968 20.3923 121.824 19.0723 123.648 19.0723C125.876 19.0723 126.754 20.6233 126.754 22.7683V33.0312H130.805V21.6133C130.805 17.8843 128.577 15.3763 124.863 15.3763C122.567 15.3763 120.98 16.3993 119.968 17.5543V15.7063H115.916V33.0312Z" fill="black"/>
<path d="M142.672 9.33725L133.488 33.0313H137.776L139.836 27.6192H150.302L152.395 33.0313H156.751L147.567 9.33725H142.672ZM145.035 14.0233L148.884 23.9232H141.254L145.035 14.0233Z" fill="black"/>
<path d="M163.705 9.40601H159.384V33.1H163.705V9.40601Z" fill="black"/>
<path d="M41.79 18.0396C42.8113 15.0435 42.4596 11.7614 40.8263 9.03612C38.3701 4.85612 33.4323 2.70562 28.6099 3.71762C26.4645 1.35537 23.3823 0.0119905 20.1509 0.0312405C15.2215 0.0202405 10.8479 3.12224 9.33136 7.70649C6.1647 8.34037 3.43132 10.2777 1.83182 13.0236C-0.642709 17.1926 -0.0785907 22.4479 3.22734 26.0229C2.20602 29.019 2.55771 32.3011 4.19099 35.0264C6.64722 39.2064 11.585 41.3569 16.4075 40.3449C18.5514 42.7071 21.6351 44.0505 24.8664 44.0299C29.7986 44.0422 34.1737 40.9375 35.6902 36.3491C38.8569 35.7152 41.5902 33.7779 43.1897 31.032C45.6614 26.863 45.0959 21.6119 41.7914 18.0369L41.79 18.0396ZM24.8692 41.1547C22.8955 41.1575 20.9837 40.4824 19.4686 39.2462C19.5375 39.2105 19.6571 39.1459 19.7345 39.0991L28.6985 34.0391C29.1571 33.7847 29.4385 33.3076 29.4356 32.792V20.4404L33.2241 22.5785C33.2649 22.5977 33.2916 22.6362 33.2973 22.6802V32.9089C33.2916 37.4574 29.5229 41.1451 24.8692 41.1547ZM6.74429 33.5881C5.75532 31.9189 5.39941 29.9622 5.73844 28.0634C5.80456 28.1019 5.92132 28.172 6.00432 28.2187L14.9683 33.2787C15.4227 33.5386 15.9854 33.5386 16.4412 33.2787L27.3846 27.1022V31.3785C27.3874 31.4225 27.3663 31.4651 27.3311 31.4926L18.27 36.6062C14.234 38.8777 9.07955 37.5275 6.7457 33.5881H6.74429ZM4.38512 14.4632C5.36987 12.7912 6.92436 11.5125 8.77568 10.8484C8.77568 10.924 8.77146 11.0574 8.77146 11.1509V21.2722C8.76865 21.7865 9.05 22.2636 9.50721 22.518L20.4505 28.6931L16.6621 30.8312C16.6241 30.856 16.5763 30.8601 16.5341 30.8422L7.4716 25.7245C3.44399 23.4447 2.06253 18.4081 4.38371 14.4646L4.38512 14.4632ZM35.5115 21.5431L24.5682 15.3666L28.3566 13.2299C28.3946 13.2051 28.4425 13.201 28.4847 13.2189L37.5471 18.3325C41.5818 20.6109 42.9646 25.6557 40.6336 29.5992C39.6475 31.2685 38.0944 32.5472 36.2445 33.2127V22.7889C36.2487 22.2746 35.9687 21.7989 35.5129 21.5431H35.5115ZM39.2817 15.9964C39.2156 15.9565 39.0988 15.8877 39.0158 15.841L30.0518 10.781C29.5974 10.5211 29.0347 10.5211 28.5789 10.781L17.6356 16.9575V12.6812C17.6328 12.6372 17.6539 12.5946 17.689 12.5671L26.7501 7.45762C30.7862 5.18199 35.9462 6.53637 38.273 10.4826C39.2564 12.1491 39.6123 14.1002 39.2789 15.9964H39.2817ZM15.5761 23.618L11.7862 21.4799C11.7454 21.4606 11.7187 21.4221 11.713 21.3781V11.1495C11.7159 6.59549 15.4959 2.90499 20.1551 2.90774C22.126 2.90774 24.0336 3.58424 25.5487 4.81624C25.4798 4.85199 25.3616 4.91662 25.2828 4.96337L16.3188 10.0234C15.8602 10.2777 15.5789 10.7535 15.5817 11.2691L15.5761 23.6152V23.618ZM17.6342 19.2812L22.5087 16.5299L27.3832 19.2799V24.7812L22.5087 27.5312L17.6342 24.7812V19.2812Z" fill="black"/>
</g>
<defs>
<clipPath id="clip0_2474_272">
<rect width="166" height="44" fill="white" transform="translate(0 0.03125)"/>
</clipPath>
</defs>
</svg>
