<svg width="49" height="47" viewBox="0 0 49 47" fill="none" xmlns="http://www.w3.org/2000/svg">
<g clip-path="url(#clip0_2773_3627)">
<path d="M23.5101 11.05H23.5001C17.4691 11.05 12.5801 15.9391 12.5801 21.97V28.39C12.5801 34.421 17.4691 39.3101 23.5001 39.3101H23.5101C29.541 39.3101 34.4301 34.421 34.4301 28.39V21.97C34.4301 15.9391 29.541 11.05 23.5101 11.05Z" stroke="#141A24" stroke-width="1.5" stroke-linecap="round" stroke-linejoin="round"/>
<path d="M9.55023 18.76C6.89023 18.76 4.74023 20.92 4.74023 23.57C4.74023 26.22 6.90023 28.38 9.55023 28.38" stroke="#141A24" stroke-width="1.5" stroke-linecap="round" stroke-linejoin="round"/>
<path d="M25.8609 34.24C27.3686 34.24 28.5909 33.0178 28.5909 31.51C28.5909 30.0023 27.3686 28.78 25.8609 28.78C24.3531 28.78 23.1309 30.0023 23.1309 31.51C23.1309 33.0178 24.3531 34.24 25.8609 34.24Z" stroke="#141A24" stroke-width="1.5" stroke-linecap="round" stroke-linejoin="round"/>
<path d="M28.5893 31.51H34.3293C36.0493 31.51 37.4493 30.11 37.4493 28.39V21.97C37.4493 14.27 31.1893 8.01001 23.4893 8.01001C15.7893 8.01001 9.5293 14.27 9.5293 21.97V28.39" stroke="#141A24" stroke-width="1.5" stroke-linecap="round" stroke-linejoin="round"/>
<path d="M37.4609 28.39C40.1209 28.39 42.2709 26.23 42.2709 23.58C42.2709 20.93 40.1109 18.77 37.4609 18.77" stroke="#141A24" stroke-width="1.5" stroke-linecap="round" stroke-linejoin="round"/>
<path d="M23.51 46.26C10.94 46.26 0.75 36.07 0.75 23.51C0.75 10.95 10.94 0.75 23.51 0.75C36.08 0.75 46.27 10.94 46.27 23.51C46.27 29.5 43.96 34.94 40.18 39.01" stroke="#141A24" stroke-width="1.5" stroke-linecap="round" stroke-linejoin="round"/>
<path d="M47.4299 39H40.1699V31.74" stroke="#141A24" stroke-width="1.5" stroke-linecap="round" stroke-linejoin="round"/>
</g>
<defs>
<clipPath id="clip0_2773_3627">
<rect width="48.18" height="47.01" fill="white"/>
</clipPath>
</defs>
</svg>
