<svg width="48" height="47" viewBox="0 0 48 47" fill="none" xmlns="http://www.w3.org/2000/svg">
<g clip-path="url(#clip0_2773_11915)">
<path d="M19.9308 34.61H10.0508V11.2H34.6208V19.88M45.8508 32.15L43.5708 32.08L42.7408 30.08L44.3008 28.42L40.8108 24.93L39.1508 26.5L37.1508 25.67L37.0808 23.39H32.1508L32.0808 25.67L30.0808 26.5L28.4208 24.93L24.9308 28.42L26.4908 30.08L25.6608 32.08L23.3808 32.15V37.08L25.6608 37.15L26.4908 39.15L24.9208 40.81L28.4108 44.2999L30.0708 42.7299L32.0708 43.56L32.1408 45.84H37.0708L37.1408 43.56L39.1408 42.7299L40.8008 44.2999L44.2908 40.81L42.7308 39.15L43.5608 37.15L45.8408 37.08V32.15H45.8508ZM39.8608 34.2099C39.8608 37.0999 37.5108 39.45 34.6208 39.45C31.7308 39.45 29.3808 37.0999 29.3808 34.2099C29.3808 31.3199 31.7308 28.97 34.6208 28.97C37.5108 28.97 39.8608 31.3199 39.8608 34.2099ZM26.0208 21.38H18.6508V11.2H26.0208V21.38Z" stroke="#141A24" stroke-width="1.5" stroke-linecap="round" stroke-linejoin="round"/>
<path d="M22.34 43.93C10.42 43.93 0.75 34.27 0.75 22.34C0.75 10.41 10.42 0.75 22.34 0.75C33.4 0.75 42.52 9.07 43.78 19.79" stroke="#141A24" stroke-width="1.5" stroke-linecap="round" stroke-linejoin="round"/>
<path d="M47.2494 15.1201L43.7894 19.7901L39.1094 16.3301" stroke="#141A24" stroke-width="1.5" stroke-linecap="round" stroke-linejoin="round"/>
</g>
<defs>
<clipPath id="clip0_2773_11915">
<rect width="48" height="46.59" fill="white"/>
</clipPath>
</defs>
</svg>
