<svg width="46" height="50" viewBox="0 0 46 50" fill="none" xmlns="http://www.w3.org/2000/svg">
<g clip-path="url(#clip0_2773_6983)">
<path d="M22.5909 39.5601C29.7044 39.5601 35.4709 33.7935 35.4709 26.68C35.4709 19.5666 29.7044 13.8 22.5909 13.8C15.4775 13.8 9.71094 19.5666 9.71094 26.68C9.71094 33.7935 15.4775 39.5601 22.5909 39.5601Z" stroke="#141A24" stroke-width="1.5" stroke-linecap="round" stroke-linejoin="round"/>
<path d="M33.361 34.1401L44.291 45.0701L40.971 48.3801L30.041 37.4501" stroke="#141A24" stroke-width="1.5" stroke-linecap="round" stroke-linejoin="round"/>
<path d="M36.3805 37.1602L33.0605 40.4702" stroke="#141A24" stroke-width="1.5" stroke-linecap="round" stroke-linejoin="round"/>
<path d="M29.2392 22.46L21.3392 31.87L15.9492 27.35" stroke="#141A24" stroke-width="1.5" stroke-linecap="round" stroke-linejoin="round"/>
<path d="M29.24 43.75H0.75V0.75H29.24V12.06" stroke="#141A24" stroke-width="1.5" stroke-linecap="round" stroke-linejoin="round"/>
<path d="M5.86914 7.28003H24.1091" stroke="#141A24" stroke-width="1.5" stroke-linecap="round" stroke-linejoin="round"/>
<path d="M5.86914 13.29H12.8291" stroke="#141A24" stroke-width="1.5" stroke-linecap="round" stroke-linejoin="round"/>
<path d="M5.86914 19.3101H7.78914" stroke="#141A24" stroke-width="1.5" stroke-linecap="round" stroke-linejoin="round"/>
<path d="M5.86914 25.3201H6.32914" stroke="#141A24" stroke-width="1.5" stroke-linecap="round" stroke-linejoin="round"/>
<path d="M5.86914 31.3401H7.12914" stroke="#141A24" stroke-width="1.5" stroke-linecap="round" stroke-linejoin="round"/>
<path d="M5.86914 37.3501H9.61914" stroke="#141A24" stroke-width="1.5" stroke-linecap="round" stroke-linejoin="round"/>
</g>
<defs>
<clipPath id="clip0_2773_6983">
<rect width="45.04" height="49.13" fill="white"/>
</clipPath>
</defs>
</svg>
