<svg width="48" height="48" viewBox="0 0 48 48" fill="none" xmlns="http://www.w3.org/2000/svg">
<g clip-path="url(#clip0_2773_9383)">
<path d="M29.1593 18.6101C28.6893 15.9601 25.9193 14.6101 23.2093 14.6101C17.6893 14.6101 16.5893 19.2601 18.3493 21.0201C20.1093 22.7801 24.5593 23.1401 27.4993 24.2701C31.7093 25.9001 30.1193 32.6801 23.6493 32.4201C20.5193 32.3001 17.3893 30.9101 17.0293 27.8801" stroke="#141A24" stroke-width="1.5" stroke-linecap="round" stroke-linejoin="round"/>
<path d="M23.5195 12.4299V34.8199" stroke="#141A24" stroke-width="1.5" stroke-linecap="round" stroke-linejoin="round"/>
<path d="M23.5195 0.75V5.02" stroke="#141A24" stroke-width="1.5" stroke-linecap="round" stroke-linejoin="round"/>
<path d="M23.5195 42.01V46.28" stroke="#141A24" stroke-width="1.5" stroke-linecap="round" stroke-linejoin="round"/>
<path d="M46.2798 23.52H42.0098" stroke="#141A24" stroke-width="1.5" stroke-linecap="round" stroke-linejoin="round"/>
<path d="M5.02 23.52H0.75" stroke="#141A24" stroke-width="1.5" stroke-linecap="round" stroke-linejoin="round"/>
<path d="M39.6098 7.41992L36.5898 10.4399" stroke="#141A24" stroke-width="1.5" stroke-linecap="round" stroke-linejoin="round"/>
<path d="M10.4399 36.5901L7.41992 39.6101" stroke="#141A24" stroke-width="1.5" stroke-linecap="round" stroke-linejoin="round"/>
<path d="M39.6098 39.6101L36.5898 36.5901" stroke="#141A24" stroke-width="1.5" stroke-linecap="round" stroke-linejoin="round"/>
<path d="M10.4399 10.4399L7.41992 7.41992" stroke="#141A24" stroke-width="1.5" stroke-linecap="round" stroke-linejoin="round"/>
<path d="M23.5199 38.3699C31.7214 38.3699 38.3699 31.7214 38.3699 23.5199C38.3699 15.3185 31.7214 8.66992 23.5199 8.66992C15.3185 8.66992 8.66992 15.3185 8.66992 23.5199C8.66992 31.7214 15.3185 38.3699 23.5199 38.3699Z" stroke="#141A24" stroke-width="1.5" stroke-linecap="round" stroke-linejoin="round"/>
</g>
<defs>
<clipPath id="clip0_2773_9383">
<rect width="47.03" height="47.03" fill="white"/>
</clipPath>
</defs>
</svg>
