<svg width="54" height="44" viewBox="0 0 54 44" fill="none" xmlns="http://www.w3.org/2000/svg">
<g clip-path="url(#clip0_2773_2212)">
<path d="M24.0295 9.93C26.5644 9.93 28.6195 7.87499 28.6195 5.34C28.6195 2.80501 26.5644 0.75 24.0295 0.75C21.4945 0.75 19.4395 2.80501 19.4395 5.34C19.4395 7.87499 21.4945 9.93 24.0295 9.93Z" stroke="#141A24" stroke-width="1.5" stroke-linecap="round" stroke-linejoin="round"/>
<path d="M6.72 16.89C10.0171 16.89 12.69 14.2171 12.69 10.92C12.69 7.62286 10.0171 4.95 6.72 4.95C3.42286 4.95 0.75 7.62286 0.75 10.92C0.75 14.2171 3.42286 16.89 6.72 16.89Z" stroke="#141A24" stroke-width="1.5" stroke-linecap="round" stroke-linejoin="round"/>
<path d="M28.0498 19.38V43.07H20.0098V19.38" stroke="#141A24" stroke-width="1.5" stroke-linecap="round" stroke-linejoin="round"/>
<path d="M16.0391 28.23V17.7C16.0391 14.92 18.2891 12.67 21.0691 12.67H26.9891C29.7691 12.67 32.0191 14.92 32.0191 17.7V28.23" stroke="#141A24" stroke-width="1.5" stroke-linecap="round" stroke-linejoin="round"/>
<path d="M24.0996 43.07V28.23" stroke="#141A24" stroke-width="1.5" stroke-linecap="round" stroke-linejoin="round"/>
<path d="M50.9304 1.81H36.4004V10.92H50.9304V1.81Z" stroke="#141A24" stroke-width="1.5" stroke-linecap="round" stroke-linejoin="round"/>
<path d="M14.5908 35.72H1.55078V43.06H14.5908V35.72Z" stroke="#141A24" stroke-width="1.5" stroke-linecap="round" stroke-linejoin="round"/>
<path d="M32.0195 34.94L36.4395 39.09L43.1095 32L46.4695 34.88L52.7895 28.34" stroke="#141A24" stroke-width="1.5" stroke-linecap="round" stroke-linejoin="round"/>
<path d="M43.4793 10.92V18.98C43.4793 20.33 42.3793 21.43 41.0293 21.43H35.5293" stroke="#141A24" stroke-width="1.5" stroke-linecap="round" stroke-linejoin="round"/>
<path d="M6.7207 16.9V18.98C6.7207 20.33 7.8207 21.43 9.1707 21.43H12.7507" stroke="#141A24" stroke-width="1.5" stroke-linecap="round" stroke-linejoin="round"/>
<path d="M7.98047 35.72V32.78C7.98047 31.61 8.62047 30.53 9.64047 29.96L12.7505 28.23" stroke="#141A24" stroke-width="1.5" stroke-linecap="round" stroke-linejoin="round"/>
</g>
<defs>
<clipPath id="clip0_2773_2212">
<rect width="53.54" height="43.82" fill="white"/>
</clipPath>
</defs>
</svg>
