<svg width="59" height="41" viewBox="0 0 59 41" fill="none" xmlns="http://www.w3.org/2000/svg">
<g clip-path="url(#clip0_2773_2549)">
<path d="M39.6295 29.71L34.1795 17.8C33.8895 17.18 33.0095 17.18 32.7195 17.8L27.2695 29.71" stroke="#141A24" stroke-width="1.5" stroke-linecap="round" stroke-linejoin="round"/>
<path d="M29.459 24.9299H37.439" stroke="#141A24" stroke-width="1.5" stroke-linecap="round" stroke-linejoin="round"/>
<path d="M18.75 10.4099H32.12" stroke="#141A24" stroke-width="1.5" stroke-linecap="round" stroke-linejoin="round"/>
<path d="M25.5898 7.73999V10.41" stroke="#141A24" stroke-width="1.5" stroke-linecap="round" stroke-linejoin="round"/>
<path d="M29.8303 10.4099C29.8303 10.4099 29.8303 16.1299 20.3203 21.6499" stroke="#141A24" stroke-width="1.5" stroke-linecap="round" stroke-linejoin="round"/>
<path d="M22.8398 14.1899C22.8398 14.1899 24.3298 17.9599 28.5798 19.4599" stroke="#141A24" stroke-width="1.5" stroke-linecap="round" stroke-linejoin="round"/>
<path d="M8.91 29.9599C4.4 29.9599 0.75 26.3099 0.75 21.7999C0.75 17.2899 4.4 13.6399 8.91 13.6399H10.49" stroke="#141A24" stroke-width="1.5" stroke-linecap="round" stroke-linejoin="round"/>
<path d="M32.5704 39.86C34.7353 39.86 36.4904 38.105 36.4904 35.94C36.4904 33.7751 34.7353 32.02 32.5704 32.02C30.4054 32.02 28.6504 33.7751 28.6504 35.94C28.6504 38.105 30.4054 39.86 32.5704 39.86Z" stroke="#141A24" stroke-width="1.5" stroke-linecap="round" stroke-linejoin="round"/>
<path d="M6.67969 29.65V20.76C6.67969 18.3 7.07969 15.93 7.80969 13.71" stroke="#141A24" stroke-width="1.5" stroke-linecap="round" stroke-linejoin="round"/>
<path d="M50.5898 13.76C51.3098 15.97 51.7098 18.32 51.7098 20.76V29.57" stroke="#141A24" stroke-width="1.5" stroke-linecap="round" stroke-linejoin="round"/>
<path d="M8.91016 29.96H9.18016V20.76C9.18016 9.73 18.1602 0.75 29.1902 0.75C40.2202 0.75 49.2002 9.73 49.2002 20.76V31.45C49.2002 33.92 47.1902 35.93 44.7202 35.93H36.4802" stroke="#141A24" stroke-width="1.5" stroke-linecap="round" stroke-linejoin="round"/>
<path d="M49.2006 29.9599C53.7106 29.9599 57.3606 26.3099 57.3606 21.7999C57.3606 17.2899 53.7106 13.6399 49.2006 13.6399H47.8906" stroke="#141A24" stroke-width="1.5" stroke-linecap="round" stroke-linejoin="round"/>
</g>
<defs>
<clipPath id="clip0_2773_2549">
<rect width="58.11" height="40.6" fill="white"/>
</clipPath>
</defs>
</svg>
