<svg width="56" height="49" viewBox="0 0 56 49" fill="none" xmlns="http://www.w3.org/2000/svg">
<g clip-path="url(#clip0_2773_1532)">
<path d="M28.1196 3.35001H22.0996V10.91H28.1196V3.35001Z" stroke="#141A24" stroke-width="1.5" stroke-linecap="round" stroke-linejoin="round"/>
<path d="M26.5898 0.75H28.3698C29.6698 0.75 30.7298 1.81 30.7298 3.11V4.89" stroke="#141A24" stroke-width="1.5" stroke-linecap="round" stroke-linejoin="round"/>
<path d="M28.1196 15.73H22.0996V23.29H28.1196V15.73Z" stroke="#141A24" stroke-width="1.5" stroke-linecap="round" stroke-linejoin="round"/>
<path d="M26.5898 13.13H28.3698C29.6698 13.13 30.7298 14.19 30.7298 15.49V17.27" stroke="#141A24" stroke-width="1.5" stroke-linecap="round" stroke-linejoin="round"/>
<path d="M28.1196 28.11H22.0996V35.67H28.1196V28.11Z" stroke="#141A24" stroke-width="1.5" stroke-linecap="round" stroke-linejoin="round"/>
<path d="M26.5898 25.51H28.3698C29.6698 25.51 30.7298 26.57 30.7298 27.87V29.65" stroke="#141A24" stroke-width="1.5" stroke-linecap="round" stroke-linejoin="round"/>
<path d="M28.1196 40.49H22.0996V48.05H28.1196V40.49Z" stroke="#141A24" stroke-width="1.5" stroke-linecap="round" stroke-linejoin="round"/>
<path d="M26.5898 37.89H28.3698C29.6698 37.89 30.7298 38.95 30.7298 40.25V42.03" stroke="#141A24" stroke-width="1.5" stroke-linecap="round" stroke-linejoin="round"/>
<path d="M8.31 15.93H0.75V34.86H8.31V15.93Z" stroke="#141A24" stroke-width="1.5" stroke-linecap="round" stroke-linejoin="round"/>
<path d="M8.31055 20.41H12.6505V11.84L22.1005 7.32001" stroke="#141A24" stroke-width="1.5" stroke-linecap="round" stroke-linejoin="round"/>
<path d="M8.31055 30.38H12.6505V38.95L22.1005 44.27" stroke="#141A24" stroke-width="1.5" stroke-linecap="round" stroke-linejoin="round"/>
<path d="M22.1005 31.89H17.9705L15.0605 27.06H8.31055" stroke="#141A24" stroke-width="1.5" stroke-linecap="round" stroke-linejoin="round"/>
<path d="M22.1005 19.51H17.9705L15.0605 23.73H8.31055" stroke="#141A24" stroke-width="1.5" stroke-linecap="round" stroke-linejoin="round"/>
<path d="M43.1501 18.19L35.5401 30.33C34.6501 31.75 35.6701 33.58 37.3401 33.58H52.5501C54.2201 33.58 55.2401 31.74 54.3501 30.33L46.7401 18.19C45.9101 16.86 43.9701 16.86 43.1401 18.19H43.1501Z" stroke="#141A24" stroke-width="1.5" stroke-linecap="round" stroke-linejoin="round"/>
<path d="M44.9492 27.66V22.14" stroke="#141A24" stroke-width="1.5" stroke-linecap="round" stroke-linejoin="round"/>
<path d="M44.9492 30.38V30.26" stroke="#141A24" stroke-width="1.5" stroke-linecap="round" stroke-linejoin="round"/>
</g>
<defs>
<clipPath id="clip0_2773_1532">
<rect width="55.44" height="48.8" fill="white"/>
</clipPath>
</defs>
</svg>
