<svg width="55" height="49" viewBox="0 0 55 49" fill="none" xmlns="http://www.w3.org/2000/svg">
<g clip-path="url(#clip0_2773_6234)">
<path d="M33.8093 39.78C38.6393 39.54 42.4793 35.55 42.4793 30.66V24.5C42.4793 19.46 38.3893 15.37 33.3493 15.37H20.9093C15.8693 15.37 11.7793 19.46 11.7793 24.5V30.66C11.7793 35.7 15.8693 39.79 20.9093 39.79H27.1293" stroke="#141A24" stroke-width="1.5" stroke-linecap="round" stroke-linejoin="round"/>
<path d="M21.0593 21.13H33.1993C36.6693 21.13 39.4793 23.94 39.4793 27.41C39.4793 30.88 36.6693 33.69 33.1993 33.69H21.0593C17.5893 33.69 14.7793 30.88 14.7793 27.41C14.7793 23.94 17.5893 21.13 21.0593 21.13Z" stroke="#141A24" stroke-width="1.5" stroke-linecap="round" stroke-linejoin="round"/>
<path d="M7.52 22.15C3.78 22.15 0.75 25.18 0.75 28.92C0.75 32.66 3.78 35.69 7.52 35.69H8.27V24.5C8.27 17.53 13.94 11.86 20.91 11.86H33.35C40.32 11.86 45.99 17.53 45.99 24.5V30.66C45.99 37.01 41.29 42.28 35.18 43.17" stroke="#141A24" stroke-width="1.5" stroke-linecap="round" stroke-linejoin="round"/>
<path d="M30.4392 48.0401C33.057 48.0401 35.1792 45.9179 35.1792 43.3001C35.1792 40.6822 33.057 38.5601 30.4392 38.5601C27.8214 38.5601 25.6992 40.6822 25.6992 43.3001C25.6992 45.9179 27.8214 48.0401 30.4392 48.0401Z" stroke="#141A24" stroke-width="1.5" stroke-linecap="round" stroke-linejoin="round"/>
<path d="M27.4005 8.43C29.5213 8.43 31.2405 6.71077 31.2405 4.59C31.2405 2.46923 29.5213 0.75 27.4005 0.75C25.2798 0.75 23.5605 2.46923 23.5605 4.59C23.5605 6.71077 25.2798 8.43 27.4005 8.43Z" stroke="#141A24" stroke-width="1.5" stroke-linecap="round" stroke-linejoin="round"/>
<path d="M46.7395 22.15C50.4795 22.15 53.5095 25.18 53.5095 28.92C53.5095 32.66 50.4795 35.69 46.7395 35.69H44.9395" stroke="#141A24" stroke-width="1.5" stroke-linecap="round" stroke-linejoin="round"/>
<path d="M27.4004 15.36V8.42004" stroke="#141A24" stroke-width="1.5" stroke-linecap="round" stroke-linejoin="round"/>
<path d="M21.3304 30.84C23.2247 30.84 24.7604 29.3043 24.7604 27.41C24.7604 25.5156 23.2247 23.98 21.3304 23.98C19.4361 23.98 17.9004 25.5156 17.9004 27.41C17.9004 29.3043 19.4361 30.84 21.3304 30.84Z" stroke="#141A24" stroke-width="1.5" stroke-linecap="round" stroke-linejoin="round"/>
<path d="M33.0101 30.84C34.9044 30.84 36.4401 29.3043 36.4401 27.41C36.4401 25.5156 34.9044 23.98 33.0101 23.98C31.1157 23.98 29.5801 25.5156 29.5801 27.41C29.5801 29.3043 31.1157 30.84 33.0101 30.84Z" stroke="#141A24" stroke-width="1.5" stroke-linecap="round" stroke-linejoin="round"/>
</g>
<defs>
<clipPath id="clip0_2773_6234">
<rect width="54.26" height="48.79" fill="white"/>
</clipPath>
</defs>
</svg>
