<svg width="49" height="49" viewBox="0 0 49 49" fill="none" xmlns="http://www.w3.org/2000/svg">
<g clip-path="url(#clip0_2773_12156)">
<path d="M24.25 19.9301C27.0114 19.9301 29.25 17.6915 29.25 14.9301C29.25 12.1686 27.0114 9.93005 24.25 9.93005C21.4886 9.93005 19.25 12.1686 19.25 14.9301C19.25 17.6915 21.4886 19.9301 24.25 19.9301Z" stroke="#141A24" stroke-width="1.5" stroke-linecap="round" stroke-linejoin="round"/>
<path d="M17.9004 35.66V27.38C17.9004 25.17 19.6904 23.38 21.9004 23.38H26.6004C28.8104 23.38 30.6004 25.17 30.6004 27.38V35.66H17.9104H17.9004Z" stroke="#141A24" stroke-width="1.5" stroke-linecap="round" stroke-linejoin="round"/>
<path d="M33.5296 22.49C35.1478 22.49 36.4596 21.1782 36.4596 19.56C36.4596 17.9418 35.1478 16.63 33.5296 16.63C31.9114 16.63 30.5996 17.9418 30.5996 19.56C30.5996 21.1782 31.9114 22.49 33.5296 22.49Z" stroke="#141A24" stroke-width="1.5" stroke-linecap="round" stroke-linejoin="round"/>
<path d="M15.0394 22.49C16.6576 22.49 17.9694 21.1782 17.9694 19.56C17.9694 17.9418 16.6576 16.63 15.0394 16.63C13.4212 16.63 12.1094 17.9418 12.1094 19.56C12.1094 21.1782 13.4212 22.49 15.0394 22.49Z" stroke="#141A24" stroke-width="1.5" stroke-linecap="round" stroke-linejoin="round"/>
<path d="M33.3105 24.91H34.9005C36.1905 24.91 37.2405 25.96 37.2405 27.25V32.1H33.3105" stroke="#141A24" stroke-width="1.5" stroke-linecap="round" stroke-linejoin="round"/>
<path d="M15.2601 24.91H13.6701C12.3801 24.91 11.3301 25.96 11.3301 27.25V32.1H15.2601" stroke="#141A24" stroke-width="1.5" stroke-linecap="round" stroke-linejoin="round"/>
<path d="M24.2491 43.21C34.7204 43.21 43.2091 34.7214 43.2091 24.25C43.2091 13.7787 34.7204 5.29004 24.2491 5.29004C13.7777 5.29004 5.28906 13.7787 5.28906 24.25C5.28906 34.7214 13.7777 43.21 24.2491 43.21Z" stroke="#141A24" stroke-width="1.5" stroke-linecap="round" stroke-linejoin="round"/>
<path d="M24.25 0.75V5.29" stroke="#141A24" stroke-width="1.5" stroke-linecap="round" stroke-linejoin="round"/>
<path d="M24.25 43.21V47.75" stroke="#141A24" stroke-width="1.5" stroke-linecap="round" stroke-linejoin="round"/>
<path d="M24.25 0.75V5.29" stroke="#141A24" stroke-width="1.5" stroke-linecap="round" stroke-linejoin="round"/>
<path d="M24.25 43.21V47.75" stroke="#141A24" stroke-width="1.5" stroke-linecap="round" stroke-linejoin="round"/>
<path d="M47.7509 24.25H43.2109" stroke="#141A24" stroke-width="1.5" stroke-linecap="round" stroke-linejoin="round"/>
<path d="M5.29 24.25H0.75" stroke="#141A24" stroke-width="1.5" stroke-linecap="round" stroke-linejoin="round"/>
<path d="M47.7509 24.25H43.2109" stroke="#141A24" stroke-width="1.5" stroke-linecap="round" stroke-linejoin="round"/>
<path d="M5.29 24.25H0.75" stroke="#141A24" stroke-width="1.5" stroke-linecap="round" stroke-linejoin="round"/>
</g>
<defs>
<clipPath id="clip0_2773_12156">
<rect width="48.5" height="48.5" fill="white"/>
</clipPath>
</defs>
</svg>
