<svg width="58" height="38" viewBox="0 0 58 38" fill="none" xmlns="http://www.w3.org/2000/svg">
<g clip-path="url(#clip0_2773_9560)">
<path d="M26.8409 29.01C32.7558 29.01 37.5509 24.215 37.5509 18.3C37.5509 12.3851 32.7558 7.59003 26.8409 7.59003C20.9259 7.59003 16.1309 12.3851 16.1309 18.3C16.1309 24.215 20.9259 29.01 26.8409 29.01Z" stroke="#141A24" stroke-width="1.5" stroke-linecap="round" stroke-linejoin="round"/>
<path d="M35.791 24.5L44.881 33.59L42.131 36.35L33.041 27.25" stroke="#141A24" stroke-width="1.5" stroke-linecap="round" stroke-linejoin="round"/>
<path d="M30.9104 14.82C30.5704 12.91 28.5804 11.93 26.6204 11.93C22.6404 11.93 21.8404 15.28 23.1104 16.55C24.3804 17.82 27.5904 18.08 29.7104 18.9C32.7504 20.07 31.6004 24.97 26.9304 24.78C24.6704 24.69 22.4104 23.69 22.1504 21.5" stroke="#141A24" stroke-width="1.5" stroke-linecap="round" stroke-linejoin="round"/>
<path d="M26.8398 10.35V26.51" stroke="#141A24" stroke-width="1.5" stroke-linecap="round" stroke-linejoin="round"/>
<path d="M26.78 4.68V0.75H0.75V36.35H26.78V31.66" stroke="#141A24" stroke-width="1.5" stroke-linecap="round" stroke-linejoin="round"/>
<path d="M11.6099 3.96997H3.91992V8.08997H11.6099V3.96997Z" stroke="#141A24" stroke-width="1.5" stroke-linecap="round" stroke-linejoin="round"/>
<path d="M11.6099 11.93H3.91992" stroke="#141A24" stroke-width="1.5" stroke-linecap="round" stroke-linejoin="round"/>
<path d="M11.6099 15.76H3.91992" stroke="#141A24" stroke-width="1.5" stroke-linecap="round" stroke-linejoin="round"/>
<path d="M11.6099 19.6H3.91992" stroke="#141A24" stroke-width="1.5" stroke-linecap="round" stroke-linejoin="round"/>
<path d="M11.6099 23.43H3.91992V32.62H11.6099V23.43Z" stroke="#141A24" stroke-width="1.5" stroke-linecap="round" stroke-linejoin="round"/>
<path d="M14.7305 3.87H22.8205" stroke="#141A24" stroke-width="1.5" stroke-linecap="round" stroke-linejoin="round"/>
<path d="M14.7305 28.7H17.7405" stroke="#141A24" stroke-width="1.5" stroke-linecap="round" stroke-linejoin="round"/>
<path d="M14.7305 32.62H22.8205" stroke="#141A24" stroke-width="1.5" stroke-linecap="round" stroke-linejoin="round"/>
<path d="M56.3898 13.94L44.5198 25.81L41.7098 23.6L29.8398 35.47" stroke="#141A24" stroke-width="1.5" stroke-linecap="round" stroke-linejoin="round"/>
<path d="M51.7598 14.18L56.3898 13.94V18.87" stroke="#141A24" stroke-width="1.5" stroke-linecap="round" stroke-linejoin="round"/>
</g>
<defs>
<clipPath id="clip0_2773_9560">
<rect width="57.14" height="37.1" fill="white"/>
</clipPath>
</defs>
</svg>
