<svg width="56" height="46" viewBox="0 0 56 46" fill="none" xmlns="http://www.w3.org/2000/svg">
<g clip-path="url(#clip0_2773_3953)">
<path d="M42.0175 18.0952C41.9575 18.3152 42.0575 18.3252 42.0375 18.5552" stroke="#141A24" stroke-width="1.5" stroke-linecap="round" stroke-linejoin="round"/>
<path d="M37.5887 18.6952C35.1687 17.9452 34.9387 20.3652 35.0187 21.1352C35.1787 22.5752 36.2087 23.8552 37.8387 23.0152" stroke="#141A24" stroke-width="1.5" stroke-linecap="round" stroke-linejoin="round"/>
<path d="M36.6382 34.9952C36.6382 34.9952 38.8082 32.2852 39.7582 30.1752L42.3882 31.1652C43.0482 31.4152 43.7682 31.0452 43.9682 30.3752C44.2082 29.6052 44.3582 28.7552 44.4582 27.8952C40.0482 27.6352 40.8382 23.6352 44.5782 23.8552C44.5282 22.6152 44.4282 21.7552 44.4282 21.7552L46.5082 21.7952C46.5082 21.7952 46.7082 10.0952 36.4282 11.2352C32.0882 11.7152 29.5082 15.8252 30.3382 19.9952C31.1682 24.1552 33.3082 24.9652 33.8882 26.2252C33.2182 28.2652 31.0482 31.1652 31.0482 31.1652" stroke="#141A24" stroke-width="1.5" stroke-linecap="round" stroke-linejoin="round"/>
<path d="M1.05922 27.9152H9.19922L9.19922 17.2252H1.05922L1.05922 27.9152Z" stroke="#141A24" stroke-width="1.5" stroke-linecap="round" stroke-linejoin="round"/>
<path d="M6.21906 20.7852H4.03906" stroke="#141A24" stroke-width="1.5" stroke-linecap="round" stroke-linejoin="round"/>
<path d="M6.21906 24.3552H4.03906" stroke="#141A24" stroke-width="1.5" stroke-linecap="round" stroke-linejoin="round"/>
<path d="M1.05922 11.5352L9.19922 11.5352L9.19922 0.845218L1.05922 0.845218L1.05922 11.5352Z" stroke="#141A24" stroke-width="1.5" stroke-linecap="round" stroke-linejoin="round"/>
<path d="M6.21906 4.40521H4.03906" stroke="#141A24" stroke-width="1.5" stroke-linecap="round" stroke-linejoin="round"/>
<path d="M6.21906 7.97522H4.03906" stroke="#141A24" stroke-width="1.5" stroke-linecap="round" stroke-linejoin="round"/>
<path d="M1.05922 44.9252H9.19922L9.19922 34.2352H1.05922L1.05922 44.9252Z" stroke="#141A24" stroke-width="1.5" stroke-linecap="round" stroke-linejoin="round"/>
<path d="M6.21906 37.7952H4.03906" stroke="#141A24" stroke-width="1.5" stroke-linecap="round" stroke-linejoin="round"/>
<path d="M6.21906 41.3652H4.03906" stroke="#141A24" stroke-width="1.5" stroke-linecap="round" stroke-linejoin="round"/>
<path d="M9.19922 39.5852H15.6292V6.18524H9.85922" stroke="#141A24" stroke-width="1.5" stroke-linecap="round" stroke-linejoin="round"/>
<path d="M9.19922 22.8852H19.3992" stroke="#141A24" stroke-width="1.5" stroke-linecap="round" stroke-linejoin="round"/>
<path d="M37.3583 40.0052C46.8134 40.0052 54.4783 32.3403 54.4783 22.8852C54.4783 13.4301 46.8134 5.7652 37.3583 5.7652C27.9032 5.7652 20.2383 13.4301 20.2383 22.8852C20.2383 32.3403 27.9032 40.0052 37.3583 40.0052Z" stroke="#141A24" stroke-width="1.5" stroke-linecap="round" stroke-linejoin="round"/>
</g>
<defs>
<clipPath id="clip0_2773_3953">
<rect width="54.93" height="45.58" fill="white" transform="translate(0.308594 0.0952148)"/>
</clipPath>
</defs>
</svg>
