<svg width="55" height="41" viewBox="0 0 55 41" fill="none" xmlns="http://www.w3.org/2000/svg">
<g clip-path="url(#clip0_2773_7025)">
<path d="M53.3607 8.56H34.2207V34.86H53.3607V8.56Z" stroke="#141A24" stroke-width="1.5" stroke-linecap="round" stroke-linejoin="round"/>
<path d="M39.0098 13.82H48.5798" stroke="#141A24" stroke-width="1.5" stroke-linecap="round" stroke-linejoin="round"/>
<path d="M39.0098 19.08H48.5798" stroke="#141A24" stroke-width="1.5" stroke-linecap="round" stroke-linejoin="round"/>
<path d="M39.0098 24.34H48.5798" stroke="#141A24" stroke-width="1.5" stroke-linecap="round" stroke-linejoin="round"/>
<path d="M39.0098 29.6H48.5798" stroke="#141A24" stroke-width="1.5" stroke-linecap="round" stroke-linejoin="round"/>
<path d="M19.9301 11.98C19.8401 12.34 20.0001 12.36 19.9701 12.73" stroke="#141A24" stroke-width="1.5" stroke-linecap="round" stroke-linejoin="round"/>
<path d="M12.7596 12.96C8.83958 11.75 8.45958 15.66 8.59958 16.91C8.85958 19.24 10.5296 21.32 13.1596 19.95" stroke="#141A24" stroke-width="1.5" stroke-linecap="round" stroke-linejoin="round"/>
<path d="M11.2299 39.37C11.2299 39.37 14.7399 34.98 16.2799 31.57L20.5399 33.17C21.5999 33.57 22.7699 32.98 23.1099 31.9C23.4999 30.66 23.7499 29.28 23.8999 27.89C16.7499 27.47 18.0299 20.98 24.0899 21.34C24.0099 19.32 23.8399 17.93 23.8399 17.93L27.2099 17.99C27.2099 17.99 27.5399 -0.960001 10.8699 0.879999C3.83989 1.65 -0.35011 8.31 0.99989 15.07C2.34989 21.8 5.80989 23.13 6.75989 25.16C5.67989 28.46 2.15989 33.16 2.15989 33.16" stroke="#141A24" stroke-width="1.5" stroke-linecap="round" stroke-linejoin="round"/>
<path d="M34.219 24.71H27.209" stroke="#141A24" stroke-width="1.5" stroke-linecap="round" stroke-linejoin="round"/>
</g>
<defs>
<clipPath id="clip0_2773_7025">
<rect width="54.12" height="40.12" fill="white"/>
</clipPath>
</defs>
</svg>
