<svg width="51" height="44" viewBox="0 0 51 44" fill="none" xmlns="http://www.w3.org/2000/svg">
<g clip-path="url(#clip0_2773_6449)">
<path d="M49.5703 31.72V2.84C49.5703 1.68572 48.6346 0.75 47.4803 0.75L2.85031 0.75C1.69604 0.75 0.760311 1.68572 0.760311 2.84V31.72C0.760311 32.8743 1.69604 33.81 2.85031 33.81H47.4803C48.6346 33.81 49.5703 32.8743 49.5703 31.72Z" stroke="#141A24" stroke-width="1.5" stroke-linecap="round" stroke-linejoin="round"/>
<path d="M49.56 28.11H0.75" stroke="#141A24" stroke-width="1.5" stroke-linecap="round" stroke-linejoin="round"/>
<path d="M25.7409 8.76C20.5309 8.76 15.9709 11.49 13.3809 15.59C15.9709 19.69 20.5309 22.42 25.7409 22.42C30.9509 22.42 35.5109 19.69 38.1009 15.59C35.5109 11.49 30.9509 8.76 25.7409 8.76Z" stroke="#141A24" stroke-width="1.5" stroke-linecap="round" stroke-linejoin="round"/>
<path d="M25.7393 18.3C27.236 18.3 28.4493 17.0867 28.4493 15.59C28.4493 14.0933 27.236 12.88 25.7393 12.88C24.2426 12.88 23.0293 14.0933 23.0293 15.59C23.0293 17.0867 24.2426 18.3 25.7393 18.3Z" stroke="#141A24" stroke-width="1.5" stroke-linecap="round" stroke-linejoin="round"/>
<path d="M23.0308 33.81V35.84C23.0308 38.07 21.2308 39.87 19.0008 39.87H14.1508C13.3308 39.87 12.5808 40.33 12.2108 41.06L11.3008 42.84H40.1708L39.2608 41.06C38.8908 40.33 38.1408 39.87 37.3208 39.87H32.4708C30.2408 39.87 28.4408 38.07 28.4408 35.84V33.81" stroke="#141A24" stroke-width="1.5" stroke-linecap="round" stroke-linejoin="round"/>
</g>
<defs>
<clipPath id="clip0_2773_6449">
<rect width="50.31" height="43.59" fill="white"/>
</clipPath>
</defs>
</svg>
