<svg width="43" height="46" viewBox="0 0 43 46" fill="none" xmlns="http://www.w3.org/2000/svg">
<g clip-path="url(#clip0_2773_3023)">
<path d="M4.64977 9.57001H11.2798C13.9998 9.57001 16.2198 11.78 16.2198 14.51V16.75C16.2198 19.47 14.0098 21.69 11.2798 21.69H4.64977C3.46977 21.69 2.50977 20.73 2.50977 19.55V11.73C2.50977 10.55 3.46977 9.59001 4.64977 9.59001V9.57001Z" stroke="#141A24" stroke-width="1.5" stroke-linecap="round" stroke-linejoin="round"/>
<path d="M41.4998 6.65997H27.1098C27.0988 6.65997 27.0898 6.66893 27.0898 6.67997V23.16C27.0898 23.171 27.0988 23.18 27.1098 23.18H41.4998C41.5109 23.18 41.5198 23.171 41.5198 23.16V6.67997C41.5198 6.66893 41.5109 6.65997 41.4998 6.65997Z" stroke="#141A24" stroke-width="1.5" stroke-linecap="round" stroke-linejoin="round"/>
<path d="M22.4201 23.18H27.0601C27.0711 23.18 27.0801 23.171 27.0801 23.16L27.0801 6.67999C27.0801 6.66895 27.0711 6.65999 27.0601 6.65999H22.4201C22.409 6.65999 22.4001 6.66895 22.4001 6.67999V23.16C22.4001 23.171 22.409 23.18 22.4201 23.18Z" stroke="#141A24" stroke-width="1.5" stroke-linecap="round" stroke-linejoin="round"/>
<path d="M36.2698 6.65997H32.3398V14.92H36.2698V6.65997Z" stroke="#141A24" stroke-width="1.5" stroke-linecap="round" stroke-linejoin="round"/>
<path d="M2.89 21.68H14.47C17.19 21.68 19.41 23.89 19.41 26.62V28.86C19.41 31.58 17.2 33.8 14.47 33.8H2.89C1.71 33.8 0.75 32.84 0.75 31.66V23.84C0.75 22.66 1.71 21.7 2.89 21.7V21.68Z" stroke="#141A24" stroke-width="1.5" stroke-linecap="round" stroke-linejoin="round"/>
<path d="M10.96 18.09C12.3186 18.09 13.42 16.9886 13.42 15.63C13.42 14.2714 12.3186 13.17 10.96 13.17C9.60138 13.17 8.5 14.2714 8.5 15.63C8.5 16.9886 9.60138 18.09 10.96 18.09Z" stroke="#141A24" stroke-width="1.5" stroke-linecap="round" stroke-linejoin="round"/>
<path d="M8.69086 44.58C10.9331 44.58 12.7509 42.7623 12.7509 40.52C12.7509 38.2777 10.9331 36.46 8.69086 36.46C6.44858 36.46 4.63086 38.2777 4.63086 40.52C4.63086 42.7623 6.44858 44.58 8.69086 44.58Z" stroke="#141A24" stroke-width="1.5" stroke-linecap="round" stroke-linejoin="round"/>
<path d="M6.26008 5.61C7.60213 5.61 8.69008 4.52205 8.69008 3.18C8.69008 1.83795 7.60213 0.75 6.26008 0.75C4.91803 0.75 3.83008 1.83795 3.83008 3.18C3.83008 4.52205 4.91803 5.61 6.26008 5.61Z" stroke="#141A24" stroke-width="1.5" stroke-linecap="round" stroke-linejoin="round"/>
<path d="M6.25977 5.60999V9.56998" stroke="#141A24" stroke-width="1.5" stroke-linecap="round" stroke-linejoin="round"/>
<path d="M8.68945 40.52V33.79" stroke="#141A24" stroke-width="1.5" stroke-linecap="round" stroke-linejoin="round"/>
<path d="M5.71094 26.48C5.71094 26.48 23.8009 43.84 28.3709 26.92" stroke="#141A24" stroke-width="1.5" stroke-linecap="round" stroke-linejoin="round"/>
<path d="M19.3105 26.68C29.9705 32.86 35.2805 26.22 35.2805 26.22" stroke="#141A24" stroke-width="1.5" stroke-linecap="round" stroke-linejoin="round"/>
<path d="M37.5805 23.92C37.5805 25.46 35.2205 26.22 35.2805 26.22C34.0105 26.22 32.9805 25.19 32.9805 23.92" stroke="#141A24" stroke-width="1.5" stroke-linecap="round" stroke-linejoin="round"/>
<path d="M30.9293 24.17C30.8293 25.44 29.7193 26.38 28.4493 26.28C27.1793 26.18 26.2393 25.07 26.3393 23.8" stroke="#141A24" stroke-width="1.5" stroke-linecap="round" stroke-linejoin="round"/>
</g>
<defs>
<clipPath id="clip0_2773_3023">
<rect width="42.26" height="45.33" fill="white"/>
</clipPath>
</defs>
</svg>
