<svg width="50" height="49" viewBox="0 0 50 49" fill="none" xmlns="http://www.w3.org/2000/svg">
<g clip-path="url(#clip0_2773_4663)">
<path d="M48.61 18.88H27.5V47.51H48.61V18.88Z" stroke="#141A24" stroke-width="1.5" stroke-linecap="round" stroke-linejoin="round"/>
<path d="M32.0293 24.26H44.0793" stroke="#141A24" stroke-width="1.5" stroke-linecap="round" stroke-linejoin="round"/>
<path d="M32.0293 29.34H44.0793" stroke="#141A24" stroke-width="1.5" stroke-linecap="round" stroke-linejoin="round"/>
<path d="M44.4009 34.43L37.4609 42.7L32.7109 38.73" stroke="#141A24" stroke-width="1.5" stroke-linecap="round" stroke-linejoin="round"/>
<path d="M19.6692 39.64H8.44922V26.73" stroke="#141A24" stroke-width="1.5" stroke-linecap="round" stroke-linejoin="round"/>
<path d="M15.9492 35.92L19.6692 39.64L15.9492 43.36" stroke="#141A24" stroke-width="1.5" stroke-linecap="round" stroke-linejoin="round"/>
<path d="M21.7402 10.3799H39.8902V15.0199" stroke="#141A24" stroke-width="1.5" stroke-linecap="round" stroke-linejoin="round"/>
<path d="M25.4602 14.1L21.7402 10.38L25.4602 6.65997" stroke="#141A24" stroke-width="1.5" stroke-linecap="round" stroke-linejoin="round"/>
<path d="M6.81 16.75H10.97C14.46 15.83 17.03 12.66 17.03 8.89C17.03 4.4 13.39 0.75 8.89 0.75C4.39 0.75 0.75 4.4 0.75 8.89C0.75 12.67 3.32 15.83 6.81 16.75Z" stroke="#141A24" stroke-width="1.5" stroke-linecap="round" stroke-linejoin="round"/>
<path d="M11.7695 16.75V21.9H6.01953V16.75" stroke="#141A24" stroke-width="1.5" stroke-linecap="round" stroke-linejoin="round"/>
<path d="M10.3301 16.75V10.38" stroke="#141A24" stroke-width="1.5" stroke-linecap="round" stroke-linejoin="round"/>
<path d="M7.86914 16.75V10.38" stroke="#141A24" stroke-width="1.5" stroke-linecap="round" stroke-linejoin="round"/>
</g>
<defs>
<clipPath id="clip0_2773_4663">
<rect width="49.36" height="48.26" fill="white"/>
</clipPath>
</defs>
</svg>
