<svg width="57" height="41" viewBox="0 0 57 41" fill="none" xmlns="http://www.w3.org/2000/svg">
<g clip-path="url(#clip0_2773_5051)">
<path d="M7.98961 10.98H12.0896C14.8096 10.98 17.0296 13.19 17.0296 15.92C17.0296 18.64 14.8196 20.86 12.0896 20.86H7.98961C6.80961 20.86 5.84961 19.9 5.84961 18.72V13.13C5.84961 11.95 6.80961 10.99 7.98961 10.99V10.98Z" stroke="#141A24" stroke-width="1.5" stroke-linecap="round" stroke-linejoin="round"/>
<path d="M5.72984 20.8601H14.6898C17.4098 20.8601 19.6298 23.0701 19.6298 25.8001C19.6298 28.5201 17.4198 30.7401 14.6898 30.7401H5.72984C4.54984 30.7401 3.58984 29.7801 3.58984 28.6001V23.0101C3.58984 21.8301 4.54984 20.8701 5.72984 20.8701V20.8601Z" stroke="#141A24" stroke-width="1.5" stroke-linecap="round" stroke-linejoin="round"/>
<path d="M12.7405 17.9299C13.8506 17.9299 14.7505 17.03 14.7505 15.9199C14.7505 14.8098 13.8506 13.9099 12.7405 13.9099C11.6304 13.9099 10.7305 14.8098 10.7305 15.9199C10.7305 17.03 11.6304 17.9299 12.7405 17.9299Z" stroke="#141A24" stroke-width="1.5" stroke-linecap="round" stroke-linejoin="round"/>
<path d="M10.8901 39.5299C12.7181 39.5299 14.2001 38.048 14.2001 36.2199C14.2001 34.3919 12.7181 32.9099 10.8901 32.9099C9.06202 32.9099 7.58008 34.3919 7.58008 36.2199C7.58008 38.048 9.06202 39.5299 10.8901 39.5299Z" stroke="#141A24" stroke-width="1.5" stroke-linecap="round" stroke-linejoin="round"/>
<path d="M8.90969 7.75004C10.0032 7.75004 10.8897 6.86356 10.8897 5.77004C10.8897 4.67652 10.0032 3.79004 8.90969 3.79004C7.81616 3.79004 6.92969 4.67652 6.92969 5.77004C6.92969 6.86356 7.81616 7.75004 8.90969 7.75004Z" stroke="#141A24" stroke-width="1.5" stroke-linecap="round" stroke-linejoin="round"/>
<path d="M8.91016 7.75V10.98" stroke="#141A24" stroke-width="1.5" stroke-linecap="round" stroke-linejoin="round"/>
<path d="M10.8906 36.22V30.73" stroke="#141A24" stroke-width="1.5" stroke-linecap="round" stroke-linejoin="round"/>
<path d="M3.59013 23.8201C3.59013 23.8201 -1.30987 28.6401 1.78013 31.2001C4.87013 33.7601 9.51013 26.4201 9.51013 26.4201" stroke="#141A24" stroke-width="1.5" stroke-linecap="round" stroke-linejoin="round"/>
<path d="M19.5508 24.9301C26.7408 26.9501 27.8808 20.8601 27.8808 20.8601" stroke="#141A24" stroke-width="1.5" stroke-linecap="round" stroke-linejoin="round"/>
<path d="M20.9492 21.18V0.75H55.6692V26.51H28.1992" stroke="#141A24" stroke-width="1.5" stroke-linecap="round" stroke-linejoin="round"/>
<path d="M30.5296 18.8199C30.2896 19.8299 29.2696 20.4499 28.2596 20.1999C27.2496 19.9499 26.6296 18.9399 26.8796 17.9299" stroke="#141A24" stroke-width="1.5" stroke-linecap="round" stroke-linejoin="round"/>
<path d="M12.3606 25.3399C11.8206 26.2299 10.6706 26.5099 9.7806 25.9799C8.8906 25.4499 8.61061 24.2899 9.14061 23.3999" stroke="#141A24" stroke-width="1.5" stroke-linecap="round" stroke-linejoin="round"/>
<path d="M25.9609 5.91992H50.6409" stroke="#141A24" stroke-width="1.5" stroke-linecap="round" stroke-linejoin="round"/>
<path d="M25.9609 13.3899H50.6409" stroke="#141A24" stroke-width="1.5" stroke-linecap="round" stroke-linejoin="round"/>
<path d="M34.6895 20.8601H50.6395" stroke="#141A24" stroke-width="1.5" stroke-linecap="round" stroke-linejoin="round"/>
</g>
<defs>
<clipPath id="clip0_2773_5051">
<rect width="56.42" height="40.28" fill="white"/>
</clipPath>
</defs>
</svg>
