<svg width="49" height="46" viewBox="0 0 49 46" fill="none" xmlns="http://www.w3.org/2000/svg">
<g clip-path="url(#clip0_2773_11981)">
<path d="M13.04 0.75H0.75V12.46H13.04V0.75Z" stroke="#141A24" stroke-width="1.5" stroke-linecap="round" stroke-linejoin="round"/>
<path d="M8.74078 0.75H5.05078V5.84H8.74078V0.75Z" stroke="#141A24" stroke-width="1.5" stroke-linecap="round" stroke-linejoin="round"/>
<path d="M47.3994 0.75H35.1094V12.46H47.3994V0.75Z" stroke="#141A24" stroke-width="1.5" stroke-linecap="round" stroke-linejoin="round"/>
<path d="M43.1002 0.75H39.4102V5.84H43.1002V0.75Z" stroke="#141A24" stroke-width="1.5" stroke-linecap="round" stroke-linejoin="round"/>
<path d="M13.04 33.47H0.75V45.18H13.04V33.47Z" stroke="#141A24" stroke-width="1.5" stroke-linecap="round" stroke-linejoin="round"/>
<path d="M8.74078 33.47H5.05078V38.56H8.74078V33.47Z" stroke="#141A24" stroke-width="1.5" stroke-linecap="round" stroke-linejoin="round"/>
<path d="M47.3994 33.47H35.1094V45.18H47.3994V33.47Z" stroke="#141A24" stroke-width="1.5" stroke-linecap="round" stroke-linejoin="round"/>
<path d="M43.1002 33.47H39.4102V38.56H43.1002V33.47Z" stroke="#141A24" stroke-width="1.5" stroke-linecap="round" stroke-linejoin="round"/>
<path d="M7.03125 28.57V17.35" stroke="#141A24" stroke-width="1.5" stroke-linecap="round" stroke-linejoin="round"/>
<path d="M3.31055 21.07L7.03055 17.35L10.7505 21.07" stroke="#141A24" stroke-width="1.5" stroke-linecap="round" stroke-linejoin="round"/>
<path d="M41.25 17.35V28.57" stroke="#141A24" stroke-width="1.5" stroke-linecap="round" stroke-linejoin="round"/>
<path d="M44.9693 24.85L41.2493 28.57L37.5293 24.85" stroke="#141A24" stroke-width="1.5" stroke-linecap="round" stroke-linejoin="round"/>
<path d="M18.5293 6.94995H29.7493" stroke="#141A24" stroke-width="1.5" stroke-linecap="round" stroke-linejoin="round"/>
<path d="M26.0293 3.22998L29.7493 6.94998L26.0293 10.67" stroke="#141A24" stroke-width="1.5" stroke-linecap="round" stroke-linejoin="round"/>
<path d="M29.7493 39.47H18.5293" stroke="#141A24" stroke-width="1.5" stroke-linecap="round" stroke-linejoin="round"/>
<path d="M22.2493 43.19L18.5293 39.47L22.2493 35.76" stroke="#141A24" stroke-width="1.5" stroke-linecap="round" stroke-linejoin="round"/>
<path d="M23.6592 30.46C27.5031 30.46 30.6192 27.3439 30.6192 23.5C30.6192 19.6561 27.5031 16.54 23.6592 16.54C19.8153 16.54 16.6992 19.6561 16.6992 23.5C16.6992 27.3439 19.8153 30.46 23.6592 30.46Z" stroke="#141A24" stroke-width="1.5" stroke-linecap="round" stroke-linejoin="round"/>
</g>
<defs>
<clipPath id="clip0_2773_11981">
<rect width="48.14" height="45.93" fill="white"/>
</clipPath>
</defs>
</svg>
