<svg width="60" height="37" viewBox="0 0 60 37" fill="none" xmlns="http://www.w3.org/2000/svg">
<g clip-path="url(#clip0_2773_10020)">
<path d="M37.6417 26.9949C44.7551 26.9949 50.5217 21.2283 50.5217 14.1149C50.5217 7.00144 44.7551 1.23486 37.6417 1.23486C30.5283 1.23486 24.7617 7.00144 24.7617 14.1149C24.7617 21.2283 30.5283 26.9949 37.6417 26.9949Z" stroke="#141A24" stroke-width="1.5" stroke-linecap="round" stroke-linejoin="round"/>
<path d="M48.4118 21.5648L59.3418 32.4948L56.0318 35.8148L45.0918 24.8848" stroke="#141A24" stroke-width="1.5" stroke-linecap="round" stroke-linejoin="round"/>
<path d="M51.4313 24.5848L48.1113 27.9048" stroke="#141A24" stroke-width="1.5" stroke-linecap="round" stroke-linejoin="round"/>
<path d="M1.17188 25.9948L9.18188 8.56484L14.6919 18.3448L19.1719 3.71484L23.7819 26.7248L28.4519 12.8148L34.4419 17.9648L36.2219 14.9348" stroke="#141A24" stroke-width="1.5" stroke-linecap="round" stroke-linejoin="round"/>
<circle cx="38.4727" cy="11.1249" r="0.75" fill="#141A24"/>
<circle cx="40.752" cy="7.2749" r="0.75" fill="#141A24"/>
<circle cx="43.9922" cy="10.3348" r="0.75" fill="#141A24"/>
<circle cx="47.2422" cy="13.3949" r="0.75" fill="#141A24"/>
<circle cx="49.9023" cy="10.0448" r="0.75" fill="#141A24"/>
<circle cx="52.5723" cy="6.69482" r="0.75" fill="#141A24"/>
<circle cx="55.2422" cy="3.34485" r="0.75" fill="#141A24"/>
<circle cx="58.541" cy="6.06482" r="0.75" fill="#141A24"/>
</g>
<defs>
<clipPath id="clip0_2773_10020">
<rect width="59.67" height="36.08" fill="white" transform="translate(0.421875 0.484863)"/>
</clipPath>
</defs>
</svg>
