<svg width="51" height="44" viewBox="0 0 51 44" fill="none" xmlns="http://www.w3.org/2000/svg">
<g clip-path="url(#clip0_2773_10058)">
<path d="M25.4503 30.38C32.5637 30.38 38.3303 24.6134 38.3303 17.5C38.3303 10.3866 32.5637 4.62 25.4503 4.62C18.3369 4.62 12.5703 10.3866 12.5703 17.5C12.5703 24.6134 18.3369 30.38 25.4503 30.38Z" stroke="#141A24" stroke-width="1.5" stroke-linecap="round" stroke-linejoin="round"/>
<path d="M36.2202 24.95L47.1502 35.88L43.8402 39.2L32.9102 28.27" stroke="#141A24" stroke-width="1.5" stroke-linecap="round" stroke-linejoin="round"/>
<path d="M39.2397 27.97L35.9297 31.29" stroke="#141A24" stroke-width="1.5" stroke-linecap="round" stroke-linejoin="round"/>
<path d="M32.23 33.81H2.84C1.68 33.81 0.75 32.87 0.75 31.72V2.84C0.75 1.69 1.69 0.75 2.84 0.75H47.47C48.63 0.75 49.56 1.69 49.56 2.84V31.72" stroke="#141A24" stroke-width="1.5" stroke-linecap="round" stroke-linejoin="round"/>
<path d="M23.0308 33.8101V35.8401C23.0308 38.0701 21.2308 39.8701 19.0008 39.8701H14.1508C13.3308 39.8701 12.5808 40.3301 12.2108 41.0601L11.3008 42.8401H40.1708L39.2608 41.0601C38.8908 40.3301 38.1408 39.8701 37.3208 39.8701H32.4708C30.2408 39.8701 28.4408 38.0701 28.4408 35.8401V33.8101" stroke="#141A24" stroke-width="1.5" stroke-linecap="round" stroke-linejoin="round"/>
<path d="M15.5703 18.8C15.5703 18.8 19.2103 20.47 25.7503 20.47C32.2903 20.47 35.9303 18.8 35.9303 18.8" stroke="#141A24" stroke-width="1.5" stroke-linecap="round" stroke-linejoin="round"/>
<path d="M24.7801 20.46C24.7801 20.46 24.9901 24.25 21.9701 23.93C18.9501 23.61 18.6901 21.92 18.5801 19.89C18.5801 19.89 18.7701 11.03 21.2701 10.65C22.9401 10.39 24.3701 11.51 25.1301 12.29C25.4601 12.62 26.0001 12.62 26.3301 12.29C27.1001 11.52 28.5301 10.4 30.1901 10.65C32.6901 11.03 32.8801 19.89 32.8801 19.89C32.7801 21.92 32.5201 23.61 29.4901 23.93C26.4601 24.25 26.6801 20.46 26.6801 20.46" stroke="#141A24" stroke-width="1.5" stroke-linecap="round" stroke-linejoin="round"/>
</g>
<defs>
<clipPath id="clip0_2773_10058">
<rect width="50.31" height="43.59" fill="white"/>
</clipPath>
</defs>
</svg>
